<?xml version="1.0" encoding="utf-8"?>
<!-- Generator: Adobe Illustrator 26.5.0, SVG Export Plug-In . SVG Version: 6.00 Build 0)  -->
<svg version="1.1" id="Layer_1" xmlns="http://www.w3.org/2000/svg" xmlns:xlink="http://www.w3.org/1999/xlink" x="0px" y="0px"
	 viewBox="0 0 1440 1689" style="enable-background:new 0 0 1440 1689;" xml:space="preserve">
<style type="text/css">
	.st0{fill:#F38098;}
</style>
<g>
	<g>
		<g>
			<g>
				<g>
					<path class="st0" d="M519.6,1685.7c-0.3,3.8,3.9,2.3,4.6,2.8C523.2,1682.3,518.5,1685.8,519.6,1685.7z"/>
					<path class="st0" d="M519.3,1620.1l1.3,1.6l-0.6-5.3l-0.3-2.7l-0.2-2.7C519.3,1614,519.4,1617.1,519.3,1620.1z"/>
					<path class="st0" d="M544.4,1561.9c-2.3,0.4-4.1,2-5.6,4.2c-1.5,2.2-2.7,5.1-3.7,8.2c-2.1,6.2-3.8,13.2-7.2,18l-2.2,1.1
						c1.1,2.3,2.2,4.6,3.4,6.9c0.5-1.6,1.1-3.3,1.6-5c0.5-1.7,1-3.5,1.6-5.3c1.2-3.6,2.2-7.3,3.5-10.8c0.6-1.8,1.3-3.5,1.9-5.1
						c0.7-1.6,1.4-3.2,2.1-4.7C541.2,1566.3,542.8,1563.8,544.4,1561.9z"/>
					<path class="st0" d="M575.3,1541.7c-1.7,0.1-1.2-1.8-1.1-2c0-0.1-0.1,0.2-0.6,1.4c-0.5,1.2-1.6,3.1-3.3,6.5
						c0.7-0.5,0.9-0.5,1.4-0.8C572.3,1545.7,573.4,1544.2,575.3,1541.7z"/>
					<path class="st0" d="M571.6,1546.9C568.2,1552.4,575.9,1544.6,571.6,1546.9L571.6,1546.9z"/>
					<path class="st0" d="M588.1,1521.4c-1.2,2.8-2.2,5.6-3.3,8.4c2.4-0.5,7.3-6.3,6.5-3.3C595.8,1518.7,593.4,1519,588.1,1521.4z"
						/>
					<path class="st0" d="M589.2,1511.6c-0.7,1.4-1.4,2.8-2,4.2C588.2,1515.7,589.1,1514.8,589.2,1511.6z"/>
					<path class="st0" d="M583,1524.8c1.3-3,2.7-6,4.2-9c-1.7,0.3-3.6-1-2.1,4C583.9,1517.9,584.3,1520.6,583,1524.8z"/>
					<path class="st0" d="M578.9,1528.5c-4.1,3-8.7,7.7-5.5-1c-2.3,3.6-3.6,6.3-4.2,8.2c-0.6,1.9-0.4,2.9,0.3,3
						c0.7,0.1,1.9-0.7,3.5-2.4C574.6,1534.6,576.6,1532,578.9,1528.5z"/>
					<path class="st0" d="M539.6,1555.4l-5.1,4.9c-0.3,2.1-0.5,4.2-0.7,6.3C534.1,1563.5,541.8,1556.2,539.6,1555.4z"/>
					<path class="st0" d="M626.7,1482.9c-0.7-1.5-5-0.7-6.8-1.6c-1.1,2-2.2,4-3.2,5.9C619.7,1485.5,624.8,1481.7,626.7,1482.9z"/>
					<path class="st0" d="M619.9,1481.4c1.7-2.9,3.3-5.9,5-8.8C618.5,1478.6,618.3,1480.6,619.9,1481.4z"/>
					<path class="st0" d="M584.1,1505.4c-1,2.7-2,5.4-2.9,8c-1,2.7-1.9,5.4-2.8,8c2.4-6.2,4.9-12.4,7.6-18.6L584.1,1505.4z"/>
					<path class="st0" d="M654.2,1456.6l-2,6.8c1.4-3.8,2.9-7.6,4.2-11.3C655.6,1453.5,654.9,1455.1,654.2,1456.6z"/>
					<path class="st0" d="M672.7,1437.4c-1,5.1,7.7-0.8,5.7,3.8c1.2-1.4,2.2-2.8,3.1-4.2c0.9-1.4,1.7-2.8,2.4-4.3
						c1.5-2.9,2.6-5.7,3.7-8.4c-1.5,2.4-3.5,4.7-5.9,6.9C679.4,1433.3,676.4,1435.4,672.7,1437.4z"/>
					<path class="st0" d="M691.8,1415.6c-1.5,2.5-2.7,5.5-4,8.7C689.4,1421.7,690.8,1418.9,691.8,1415.6z"/>
					<path class="st0" d="M637.4,1461.4c0.6,0.1,1.6,0.3,3,0.1c0.7-0.1,1.5-0.3,2.5-0.6c0.5-0.2,0.9-0.4,1.5-0.7
						c0.6-0.3,1.2-0.7,1.8-1.1l-3-0.1c-1-0.1-1.9-0.2-2.9-0.2C639.4,1459.5,638.4,1460.5,637.4,1461.4z"/>
					<path class="st0" d="M640.1,1458.7l0.2,0c3.3-3,5.6-5.1,6.6-5.9C646.1,1453.6,644,1455.3,640.1,1458.7z"/>
					<path class="st0" d="M636.7,1462c0.3-0.2,0.5-0.4,0.7-0.7C636.9,1461.3,636.6,1461.4,636.7,1462z"/>
					<path class="st0" d="M603.9,1488.3c0.5-1.5,1.3-3.3,2.1-5c0.7-1.7,1.4-3.4,1.7-4.7c0.6-2.6-0.5-3.8-5.9-0.7
						C601.1,1482.9,607.2,1479.4,603.9,1488.3z"/>
					<path class="st0" d="M629.5,1461.5l-4.1,3.3l-4.1,3.4c0.9,0.6,3.4,0.5,2.3,3.3l2.9-5L629.5,1461.5z"/>
					<path class="st0" d="M632.3,1457c-1,1.5-1.9,3-2.8,4.6c1-0.8,2-1.6,3.1-2.5L632.3,1457z"/>
					<path class="st0" d="M675.9,1425.9c2-4.7,5.5-8.4,9.3-12.7c-2.5,1.9-4.9,3.9-7.3,6c-2.4,2.1-4.7,4.2-6.8,6.4
						C671.5,1427.2,671.3,1430.8,675.9,1425.9z"/>
					<path class="st0" d="M658.5,1441.7c0.2-0.3,0.4-0.6,0.6-0.9C658.4,1441,658,1441.2,658.5,1441.7z"/>
					<path class="st0" d="M725.4,1375.5c-0.4,0-0.8,0-1.2,0c0.1,0.2,0.2,0.4,0.3,0.7L725.4,1375.5z"/>
					<path class="st0" d="M669.8,1425.8c-3.9,2.8-5.2,5.5-6.1,8.3c2.2-2.8,4.6-5.7,7.4-8.5C671,1424.9,670.8,1424.6,669.8,1425.8z"
						/>
					<path class="st0" d="M701.4,1403.3c-2.3,1-4.8,2.3-7.3,3.8C696.8,1406.4,701.6,1404.7,701.4,1403.3z"/>
					<path class="st0" d="M661.1,1440.5c-0.1,0.2-0.2,0.4-0.4,0.6C662.5,1440.6,662,1440.5,661.1,1440.5z"/>
					<path class="st0" d="M661.1,1440.5c1.3-2.2,1.9-4.3,2.6-6.3c-1.8,2.3-3.4,4.5-4.6,6.6C659.8,1440.5,660.5,1440.5,661.1,1440.5z
						"/>
					<path class="st0" d="M721.3,1343.6c0.9,1.8-0.6,5.4-3.5,8.8c-1.5,1.8-3.3,3.5-5.5,5.1c-1.1,0.8-2.2,1.5-3.5,2.1
						c-1.2,0.7-2.5,1.2-3.8,1.7c-5.9,9.1,8.1,14.2,19.3,14.1c-0.9-1.5-2-2.7,4.5-11c-2.1,0.2-7.2,3-11.4,4.5c-4.1,1.7-7.2,2.3-5.1-2
						c9.3-10.6,9.6-6.3,16.1-8.8c-3.7-0.2-1.5-4.3,1.1-8.9c2.6-4.5,5.4-9.5,2.1-11.5l-4.3,4.7l-2.1,2.4c-0.7,0.8-1.4,1.6-2.1,2.4
						C722.1,1346.5,724.6,1342.2,721.3,1343.6z"/>
					<path class="st0" d="M709.4,1388.1c-0.9,1.1-1.9,2.2-2.8,3.3c2-1.4,3.9-2.4,6.2-3.3c2.3-0.9,4.8-1.7,8.2-2.6
						c3.9-6,4-8.1,3.5-9.4l-7.9,6.6l-7.9,6.8L709.4,1388.1z"/>
					<path class="st0" d="M692.8,1404.8c-0.6-5.4,5.6-14-2.3-12.9c-4.5,4.6-5.4,6.8-5.8,8.7c-0.4,1.9-0.1,3.5-2.2,6.9
						c13.9-15.3-2.5,5.9,9.8-2.9c-2.4,3.4-4.8,6.1-7.1,8.7c3-2.3,6-4.3,8.9-6.1c-0.2,0.1-0.3,0.1-0.5,0.1l-0.1,0.1c0,0,0,0,0-0.1
						c-1,0.2-1.4,0.2-0.5-0.3c0-0.1,0.2-0.3,0.2-0.4C692.9,1406.1,692.8,1405.5,692.8,1404.8c4.9-3.5,1.5,0.1,0.5,1.8
						c0.1,0.2,0.1,0.5,0.3,0.6c0,0,0.1,0,0.1,0c4.3-5.4,8.6-10.7,13-15.9c-1.8,1.3-3.6,2.8-5.8,5
						C698.6,1398.6,696,1401.3,692.8,1404.8z"/>
					<path class="st0" d="M602.7,1463.4c0.7-0.2,0.9,0,1.2,0.2C604.4,1462.3,604.5,1461.7,602.7,1463.4z"/>
					<path class="st0" d="M610.6,1459.1c-0.7,1.5-0.3,3.6-4,6.8c-3.9,2.2-1.5-1.4-2.6-2.3c-1.3,2.9-4.9,9.6,3,4.4l0.6-1.5
						c6.9-5,18.3-8.6,17.6-7.1c-2.2-0.6-4.2-0.9-6.4-1.1C616.4,1458.3,613.9,1458.5,610.6,1459.1z"/>
					<path class="st0" d="M651.6,1431.1c3.7-4.6,7.3-9.3,10.9-13.9l-8.9,3.7l1.9,1.3C647.8,1428.6,651.3,1429,651.6,1431.1z"/>
					<path class="st0" d="M728.2,1375.9l1.3,4.8c1-3.6,2-7.3,3.1-10.9C731.1,1371.8,729.7,1373.9,728.2,1375.9z"/>
					<path class="st0" d="M744.3,1362.6l1.7,3.6l3-5.1C747.4,1361.6,745.9,1362.1,744.3,1362.6z"/>
					<path class="st0" d="M744.7,629.4l3.8-3.7C746.6,627.3,745.5,628.4,744.7,629.4z"/>
					<path class="st0" d="M712.9,648.9l0.3,2.1C714,649.2,714.2,648.2,712.9,648.9z"/>
					<path class="st0" d="M733.4,1030.7c-7.8-3-16.3-8.1-15.1-3.8l2.6,4.1C725.9,1029.9,729.9,1030.1,733.4,1030.7z"/>
					<path class="st0" d="M532.6,897.2c-0.7,0.5-1.4,1-2.1,1.4c0.6,2.3,1.1,4.4,1.7,6.3C532.2,902.6,532.4,900,532.6,897.2z"/>
					<path class="st0" d="M518.5,884.9l6.7-7.8C523.4,878.7,521.2,881.2,518.5,884.9z"/>
					<path class="st0" d="M864.8,531.2c-1.6,0.2-3.1,0.7-4.5,1.3c0.4,0.5,1,0.5,1.8,0.1C862.9,532.3,863.7,531.7,864.8,531.2z"/>
					<path class="st0" d="M942.5,1234.9c6.6-4.2,11.3-8.7,14.9-13.2C949.4,1228.3,941.6,1230.6,942.5,1234.9z"/>
					<path class="st0" d="M756.6,676.2c2.3-2.3,2.9-3.8,2.3-4.6C756.6,674,755.4,675.6,756.6,676.2z"/>
					<path class="st0" d="M969.8,1200.1c-1,1.3-1.9,2.6-2.9,3.9c-2.1,6.1-4.9,12-9.5,17.8c1.5-1.2,2.9-2.6,4.3-4.1
						c1.4-1.5,2.7-3.2,3.8-5c1.1-1.8,2.1-3.8,2.9-5.9C969.1,1204.6,969.6,1202.4,969.8,1200.1z"/>
					<path class="st0" d="M741.5,145.6c0.5-0.2,1.1-0.6,1.6-0.8C742.8,144.2,742.2,144.7,741.5,145.6z"/>
					<path class="st0" d="M938.7,49.2c-1.5,1.3-4.1,3-6.5,4.8C933.6,53.5,935.6,52,938.7,49.2z"/>
					<path class="st0" d="M821.9,1320.3C817.7,1323,821.5,1321.1,821.9,1320.3L821.9,1320.3z"/>
					<path class="st0" d="M792.8,1316.7c0.7-0.9,1.1-1.8,0.7-2.8C793.6,1315,793.4,1315.9,792.8,1316.7z"/>
					<path class="st0" d="M945.3,1143.3c-0.1-0.1-0.1-0.2-0.1-0.4c-0.1,0.8-0.2,1.1-0.2,1.2C945,1144.1,945.2,1143.8,945.3,1143.3z"
						/>
					<path class="st0" d="M814.4,1322.2c1.9-0.4,4-1.1,6.2-2C819.6,1320.4,817.7,1321,814.4,1322.2z"/>
					<path class="st0" d="M816.3,1323.5c-1.6,0.7-2.8,1.2-4,1.7C812.1,1326.1,812.8,1326.3,816.3,1323.5z"/>
					<path class="st0" d="M827.9,1316.6c-2.5,1.5-4.9,2.6-7.3,3.6c1-0.2,1.5-0.2,1.3,0C823.2,1319.5,824.9,1318.4,827.9,1316.6z"/>
					<path class="st0" d="M556.1,468.1c-0.2-0.3-0.6-0.6-0.8-1c-2.9-0.8-3.8-1.1-3.4-0.7C552.2,466.6,553.9,467.3,556.1,468.1z"/>
					<path class="st0" d="M610.5,1076.8c0.2,0,0.3-0.2,0.5-0.2c-0.2,0-0.5-0.1-0.7-0.1L610.5,1076.8z"/>
					<path class="st0" d="M593.1,1080.2c7.5-5.5,11.7-4.9,17.2-3.8l-5.9-12.4C600.7,1069.4,596.9,1074.9,593.1,1080.2z"/>
					<path class="st0" d="M820.7,583.6c-3.9,0.9-7.8,1.8-11.8,2.7c4.3-6.3,8.6-10.3,10.4-12.6c1.8-2.3,1.2-2.9-4.6-2.4
						c3.1,6.1-6,12.3-15.6,18.2c-9.6,5.9-19.7,11.8-17.1,18.2l-8.4,1.4c2.1-1,2-1.9,4.1-2.9c-8.4,0.9-9.9,4.5-11.6,9
						c-0.9,2.2-1.8,4.7-3.8,7.2c-0.3,0.3-0.5,0.7-0.8,1c-0.3,0.3-0.6,0.6-0.9,1c-0.5,0.6-1.2,1.2-1.9,1.8c-1.4,1.2-3.2,2.3-5.4,3.5
						c-6.5,2.8-11.6,3.7-8.5-0.2l-11.5,11.1c-4,2.2-4.3-0.4-0.3-2.6c-6.6,4.5-13.2,9-19.7,13.6l-0.1-0.4c-1.8,3.7-6.6,10.6-9,13.9
						c-6.2,1.7,1.8-2.9-0.4-3.5c-3.1,3.4-6.3,6.7-9.4,10.1c-6.5,0.1,0.9-9,8.9-13.6c-8.9-2.2-10.9,0-13.9,3.9
						c-3,3.9-7.1,9.2-20.6,14l4.8-4.5l4.8-4.4c-2.8-0.4-5.3-0.2-7.8,0.4c-2.4,0.6-4.8,1.7-7.3,2.9c-1.2,0.6-2.5,1.3-3.8,2
						c-1.3,0.7-2.7,1.5-4.1,2.2c-2.9,1.5-6.1,2.9-9.8,4.3c2.2-0.2,10-2.2,16-2.7c6-0.4,10,0.6,5,6.3c-3.9,1.7-8.8,4.5-13.4,11.7
						c-1.5-1.9-3.7-1.4-6.4,0.4c-2.7,1.8-5.9,4.9-9.6,8.2l-3.6-5.3c-7.1,8.5-4.3,10.4-7.1,16.8c-4.7,3.8-8.2,5.3-11.3,5.8
						c-3.1,0.4-5.7-0.2-8.2-0.7c-7.4,7-3.5,5.8,0.2,5.2c3.7-0.6,7.2-0.6-0.4,8.3c-1.6,1.3-3.2,2.5-4.6,3.9c-1.4,1.3-2.7,2.7-3.9,4.1
						c-2.4,2.8-4.7,5.6-6.6,8.7c-1.9,3.1-3.8,6.4-5.7,10.1c-1.8,3.7-3.6,7.7-5.6,12c-8,7.9-2.1-3.8-5.9-1.6l-1.3,11
						c-1.4,1.9-2.3,0.4-2.8-0.3c-1.5,4-0.2,5,0.7,6.5c0.9,1.5,1.5,3.5-1.2,9.3c1,1.6,0.2,3.5-1.7,5.7c-1.9,2.2-4.9,4.7-8,7.5
						c-3,2.9-6.3,6.2-8.8,9.8c-2.4,3.7-4.1,7.7-4.2,12.1c-3.4,2.6-2.6-3.5-5.3-3.6c-1.4,5.4-2.3,9.3-3.1,12.3
						c-0.8,3-1.3,5.2-1.7,7.3c-0.4,2.1-0.7,4.1-0.9,6.8c-0.3,2.7-0.5,6-0.8,10.7c-3.4,3.9-6.8,7.7-10.2,11.7
						c4.5-3.9,6.5-2.1,7.4,2.3c0.8,4.4,0.4,11.4,0,17.9c3.7-2.5,6.9-4.7,8.7-6.2l-4.9,19c-1.9,1.7-3.1-1-4.2-5
						c-0.1,1.4-0.1,2.8-0.1,3.9c-5,5.3-6.9,0.5-8.1-5.5c2.1-1.6,4.3-3.2,6.5-4.7c-1.5-6-3.6-11.9-7.4-12.5c0.1,1.5-0.3,3.9-1.1,6.5
						c-0.4-1.6-1-2.7-1.8-2.4c-0.9,0.3-0.5,2.8-0.3,6.3l-8.3,1.1l2.1,2.2l-7.3,10.6c-2.4,3.6-4.8,7-7.3,10.7
						c-0.5,10,0.1,19.9,0.3,30.8c0.1,5.4,0.1,11.1-0.1,17.2c-0.2,6.1-0.6,12.7-1.1,19.9c-2-4-3.9-4.8-6.3-4.8c-2.3,0-4.9,1-7.9,0.3
						c4-3.7,4.6-9.6,5.1-16.6c0.6-7,1.2-15.1,4.6-22.3c-1.8,3.7-3.2,4.9-4.2,4.9c-1,0-1.6-1.3-1.7-2.5c-1.4,9.7-2.3,19.4-2.5,29.4
						c-4.8-1.7-5.2,5.2-8.3,13c2.7-1.2,4.2-0.3,5.1,1.9c0.4,1.1,0.7,2.5,0.9,4.1c0.1,0.8,0.2,1.7,0.2,2.6c0.1,0.9,0.2,1.9,0.2,2.9
						c0.1,2,0.3,4.2,0.4,6.4c0.2,2.3,0.4,4.5,0.8,6.8c0.3,2.2,0.9,4.5,1.5,6.5c0.3,1,0.7,2,1.1,2.9c0.4,0.9,0.7,1.7,1.2,2.5
						c-1.5,0.9-3.4,0.8-5.2-1.7c-0.5-0.6-0.9-1.4-1.4-2.4c-0.4-1-0.8-2.1-1.1-3.4c-0.7-2.6-1.1-6-1.1-10.1c-0.8,2.3-1.3,4.4-1.2,6.5
						c0,1,0.1,2,0.2,2.9c0.2,0.9,0.5,1.8,0.8,2.7c0.6,1.7,1.5,3.2,2.5,4.7c1,1.4,2.2,2.7,3.4,4c0.6,0.6,1.2,1.2,1.8,1.9
						c0.6,0.6,1.3,1.2,1.9,1.8c0.6,0.6,1.2,1.2,1.8,1.9c0.6,0.6,1.2,1.2,1.8,1.9c2.3,2.7,4.3,5.7,6.2,10.3c-1.4-1.6-2.3-3-3.2-3.9
						c-0.9-1-1.6-1.7-2.8-1.9c0.6,0.5,1.3,1.2,1.9,1.8c0.7,0.7,1.4,1.3,2.1,2.1c1.4,1.5,3.1,3,4.6,4.6c3.6,3.5,7.8,6.5,10.5,8.7
						c2.7,2.1,4,3.7,1.6,3.7c-1.4-0.6-2.8-1.3-4.1-2c1.7,0.9,3.4,1.9,5.4,2.8c0.9,0.4,1.9,0.8,2.8,1.2c0.9,0.4,1.8,0.7,2.8,1
						c1.9,0.7,3.8,1.2,5.8,1.8c1,0.3,2,0.5,3,0.7c1,0.2,2,0.5,3,0.7c8,1.6,16.3,2.3,23.7,2.3c7.5,0,14.2-0.7,19.2-1.9
						c5-1.2,8.4-2.8,9.3-5c0.2,1.1-2.9,10.2-4.3,11.9c13.3-9.4,25.5-19.3,38.4-28.9c-1.7,3.7,0.8,9.8,1.3,15.6
						c0.3,2.9,0.1,5.7-1.2,8c-1.3,2.3-3.7,4.2-8.1,5.3c2.5,0.5,5.3,1,8.8,1.1c3.4,0.1,7.5-0.2,12.1-1.3c-1.4-0.6-3.3-3.3-4.3-5.9
						c-1-2.6-1.1-5.2,1.2-5.4c1.5,1,2.8,1.9,3.8,2.7c0.5,0.4,1,0.7,1.5,1c0.5,0.3,0.9,0.6,1.4,0.8c1.7,1,2.9,1.6,4.2,2.1
						c2.6,1.1,5.6,2,13.7,5.8c-5.2-1.8,1.1-13,9.4-12.4c-1.3,1.7,0.4,11.3-2.7,12.4c7.1-3.5,14.1-7.2,21.1-10.9
						c-5.2,2-1,9.5,3.8,12.7c-1.1-1.1,3.5-1.1,9.1-1c5.6,0.1,12.3,0.1,15.1-0.7c-3-0.7-6.1-1.4-9.2-2.2c12.2,0.4,17.7-4.1,23.1-8.6
						c5.4-4.5,10.7-9.2,22.1-9.9c-2.6,2.5-5.6,14.8,5.9,15.3c2.4-3,7.6-10.4,15.1-17.5c1.9-1.8,3.9-3.5,6-5.2
						c2.1-1.7,4.4-3.2,6.8-4.6c4.8-2.8,10.1-4.8,15.6-5.6c1.3,1.2,2.6,2.4,3.9,3.6c2.8-0.4,5.6-0.7,8.4-1l4.3-0.4l4.3-0.2
						c-1.5,0.8-3.3,1.8-5.3,2.8c-1.9,1-4.1,2.2-6.5,3.5c-2.3,1.2-4.7,2.7-7.2,4c-2.5,1.4-5,3-7.5,4.4c-10,6-19.8,12.7-26.7,16.6
						c4.2,1.1,4.8,2.1,5.9,2.6c0.6,0.3,1.2,0.5,2.5,0.6c1.3,0.1,3.2,0,6.1,0c2.1,1.5,0.5,2.7-2.1,3.5c-2.6,0.9-6.1,1.4-7.8,1.6
						c9.3,0.3,18.3,1,26.7,2.3c-0.2-1.7,1-2.9,2.9-3.7c0.9-0.4,2.1-0.8,3.3-1.1c1.2-0.3,2.5-0.5,3.8-0.7c0.7-0.1,1.3-0.2,1.9-0.3
						c0.6-0.1,1.3-0.2,1.9-0.3c1.2-0.2,2.3-0.4,3.3-0.7c2-0.5,3.4-1.3,3.4-2.7c-10,0.2-19.8,1.6-29.7,3.7c-0.2-1.7,0.7-3.7,2.7-5.7
						c1-1,2.2-2,3.6-2.9c1.4-0.9,3.1-1.9,5-2.6c1.8-0.8,3.9-1.5,6-2c2.2-0.5,4.5-0.9,6.9-1.1c4.7-0.4,9.9,0.2,14.8,1.7
						c2.2,2,0.5,4.6-1.7,7.1c-2.2,2.5-4.8,4.8-4.9,6c1.5-0.9,6.2-0.9,10.8-0.2c1.1,0.2,2.3,0.4,3.3,0.6c1.1,0.3,2.1,0.5,2.9,0.8
						c1.7,0.5,3,1.1,3.3,1.7c-1.5,0.1-3,0.3-4.5,0.4c-1.5,0.1-3,0.3-4.5,0.5c2.4,1.3,4.8,1.9,7.3,2c2.4,0.2,5,0,7.5,0
						c2.5,0,5.1,0.2,7.7,1.1c2.6,0.9,5.1,2.5,7.5,5.3c2,1.2,4.2,4.5,6,7.3c0.9,1.4,1.8,2.5,2.6,3.2c0.8,0.7,1.5,0.8,2.1,0
						c-2.8-10.1,5.5-32.3,13.2-35c0.3,0.3,1.9,1.6,3.9,3.6c1,1,2.2,2.1,3.4,3.3c1.2,1.3,2.5,2.6,3.8,4c5.2,5.6,10.1,12,11.3,15.2
						c1.6,4.8-3,5.9-7.5,7c-4.5,1.2-8.9,2.3-7.7,6.2c0.6-0.7,2.1-0.9,3.7-1c1.6,0,3.2,0.2,4.1,0.5c1.5,2,0.3,2.9-0.2,3.9
						c-0.5,1-0.3,2.2,4,5c1.4-1.1,3.1-0.7,4.7,0.1c0.8,0.4,1.6,1,2.3,1.6c0.7,0.6,1.3,1.2,1.8,1.8c1,1.1,1.6,1.8,1.5,1.3
						c-0.1-0.3-0.3-0.8-0.7-1.8c-0.5-1-1.1-2.4-2.2-4.3c4.5,2.6,6.3,4.7,7.9,7.2c0.4,0.6,0.8,1.2,1.3,1.9c0.4,0.7,0.9,1.4,1.4,2.1
						c0.5,0.8,1.1,1.6,1.9,2.5c0.7,0.9,1.4,1.9,2.4,3c0.3-1.4,1.6-2.2,3.5-2.5c0.9-0.1,2.1-0.1,3.3,0c1.2,0.2,2.5,0.5,3.9,0.9
						c2.8,0.9,5.6,2.4,8.4,4.3c1.3,1,2.5,2.1,3.7,3.2c0.6,0.6,1.1,1.1,1.6,1.8c0.5,0.6,0.9,1.2,1.3,1.9c-1.8,0.1-2.9,3.3-3.4,4.8
						c0.5,1.3,0.8,2.6,1.2,3.9c0.2,0.6,0.4,1.3,0.5,1.9c0.1,0.6,0.2,1.3,0.3,1.9c0.2,1.2,0.4,2.4,0.6,3.6c0.1,1.2,0.2,2.3,0.2,3.5
						c0.2,2.3,0,4.5-0.1,6.6c0,0.5-0.1,1.1-0.1,1.6c-0.1,0.5-0.2,1-0.2,1.6c-0.2,1-0.3,2-0.5,3c-0.1,1-0.4,2-0.6,3
						c-0.3,1-0.4,2-0.7,2.9c-0.6,1.9-1.2,3.9-2,5.8c-0.7,2-1.6,3.9-2.5,6c-0.5,1-1,2-1.5,3.1c-0.5,1.1-1.2,2.1-1.7,3.2
						c-1.1,0.4-3.4,2.4-5.4,3.5c-2.1,1.1-3.8,1.4-3.9-1c-0.3,1.4-0.3,3-0.7,4.8c-0.2,0.9-0.6,1.9-1.1,2.9c-0.5,1-1.3,2.1-2.2,3.3
						c-3.1,1.2-4.1,1-4,0.3c0-0.7,1.2-2.1,2.2-3.6c0.5-0.7,1-1.5,1.4-2.2c0.4-0.7,0.6-1.4,0.6-1.9c0.1-1.1-0.8-1.6-3.5-1.1
						c0.7,0.8,0.7,2,0.2,3.7c-0.4,1.7-1.4,3.7-2.6,5.8c-2.5,4.3-6.3,9-8.9,12.8c3,1.5,7.2-1.7,10.9-6.4c0.9-1.2,1.8-2.4,2.6-3.8
						c0.8-1.3,1.6-2.6,2.3-4c1.4-2.6,2.4-5.2,3.2-7.3c1.7,1.3,2.9,3.2,3.4,5.9c0.6,2.7,0.4,6.1-0.6,10c-1.9,7.7-7.2,17.2-15.3,25.8
						c-6.7,6.4-9.2,6.4-10.1,5.2c-0.9-1.2-0.4-3.5-1.3-2.1c-7.1,4.6-11.7,8.4-15,11.9c-3.3,3.5-5.3,6.8-7.2,9.7
						c-1.9,3-3.8,5.8-6.8,8.3c-3,2.6-7.2,4.9-13.6,7.1c-5.9,0.5-7.4-1.7-8-4.3c-0.6-2.6-0.1-5.6-2.2-6.6c11-9.2,20.4-8.4,28.6-13.7
						l-11.5,4c3-3.9,10.4-10,15.6-11.5c-2.6,0.2-6.8,2.1-12.2,4.9c-5.3,2.8-11.8,6.5-18.6,10.6c-3.4,2-6.9,4.2-10.4,6.4
						c-3.5,2.2-6.9,4.5-10.4,6.5c-6.9,4.1-13.8,7.5-19.8,9.7c-2.9,3.8-8.8,9.2-4.6,9.3c2.2-1.6,4.4-3.1,6.6-4.6c4.3,0,1.8,3.2-0.6,6
						c-2.4,2.8-4.7,5.1,0.3,3.4c-8,8.1-16.5,18.1-31,23.1l-5.4-4.1c1.1,1.4,10.4-1.5,13.3-5.1c-4.3,5.4-24.4,3.7-26.6,14l11.3-1.3
						c-4,3.9-8.1,8.9-12.6,13.4c-1.1,1.1-2.3,2.3-3.5,3.3c-1.1,1.1-2.2,2.1-3.4,3c-1.2,0.9-2.4,1.8-3.7,2.6c-1.3,0.8-2.6,1.6-4,2.2
						c4,1,4.4,0.4,5.3-0.2c0.9-0.6,2.2-1.3,7.6-0.4c-2.7-1-2.4-2.4-0.7-4.1c1.9-1.7,5.4-3.6,8.8-5.5c6.8-3.7,13.2-7.2,5.2-8.1
						c12.4,2.6,16.4-4.8,31.2-4.9c-1.3-1.6-5.9-1.2,4.7-5.8c0.2-0.8,0.9-2,1.4-2.8c0.3-0.1,0.5-0.2,0.8-0.2c-0.2,0-0.4,0-0.7,0.1
						c0.3-0.5,0.3-0.6-0.2,0c-2.8,0.5-5.3,0.7-6.6,0.1c1.4-3.4,6.1-7.3,11-11c4.9-3.7,9.9-7.3,12-10c6.4-2.7-1.3,3.5,3.1,3.4
						c2.1-2.6,4.1-5.3,6.1-8c1.6,1.7,6.5,0.7,9.5,0.7c3-0.1,4.1,1-2.3,6.7c2.1-1.3,4.3-2.6,6.4-4l6-3.9c3.8-1,8.1-2.7,12.3-4.9
						c4.1-2.1,7.9-4.7,10.5-7.4c6.2-2.6,12.1-13.2,8.8-7.1c6-4.8,12.1-9.7,18.1-14.9l0.8,0.8c4.9-3.2,9.7-7,14.3-11.3
						c4.6-4.2,9.2-8.9,13.8-13.8c4.6-4.9,9.2-10.1,14.1-15.6c4.9-5.5,10.1-11.4,15.6-18.3c0.4-1.2,0.8-2.4,1.2-3.6
						c0.4-1.2,0.7-2.5,1.1-3.8c0.8-2.6,1.3-5.4,2-8.3c1.2-6,2.4-12.9,3.2-21.4c1.3-1.1,2.5-2.3,3.8-3.5c-0.7-6.8-1.4-17.2-3.8-26.1
						c-1-4.5-2.7-8.5-4.1-11.7c-1.6-3-3.3-5.2-4.8-5.9c0.3-2.1,0-4.5-0.8-7.3c-0.2-0.7-0.4-1.4-0.7-2.1c-0.3-0.7-0.6-1.4-0.9-2.1
						c-0.6-1.4-1.4-2.9-2.2-4.3c-3.5-5.7-8.5-11.8-14.2-16.9c-0.7-0.7-1.4-1.3-2.1-2l-2.2-1.8c-1.5-1.2-3-2.5-4.4-3.6
						c-3-2.2-6-4.5-8.8-6.4c-1.4-1-2.8-2-4.2-2.9c-1.4-0.9-2.7-1.8-3.9-2.6c-0.6-0.4-1.2-0.9-1.8-1.3c-0.6-0.4-1.2-0.8-1.7-1.2
						c-1.1-0.8-2.2-1.6-3.1-2.3l-3.3,3.9c-2.7-1.8-5.5-3.4-8.3-5c-2.9-1.5-5.8-2.9-8.8-4.2c-6.1-2.6-12.8-4.9-20.3-7.1l-0.9,4.5
						c-6.8-1-14.2-4.9-22.8-9.1c-8.6-4.2-18.3-8.7-29.1-10.6c1.8-1.4,7.2,0.2,10.6,2.2c-5.6-4-12.1-6.3-19.1-7.2
						c-3.4-0.4-6.9-0.7-10.3-0.5c-1.7,0-3.4,0.1-5.1,0.2c-1.7,0.2-3.4,0.3-5.1,0.5c-1.7,0.2-3.3,0.4-5,0.6c-1.6,0.2-3.3,0.4-4.9,0.6
						c-3.2,0.5-6.4,0.8-9.4,1.2c-3.1,0.3-6.1,0.4-9,0.3c-2.9-0.1-5.8-0.5-8.6-1.3c-5.3,2-9.3,1.7-13.1,0.9c0.5,0,0.9-0.2,1.3-0.3
						c-0.6,0-1.4,0-2.2,0.1c-2.4-0.6-4.9-1.3-7.5-1.8c2.3,0.9,4.5,1.6,6.4,1.9c-2.1,0.2-4.6,0.6-7.4,1.1c-2.7,0.5-5.7,1.2-8.6,2
						l-2.9-4.6c-0.5,0.1-0.9,0.1-1.3,0.2c-5.8-1.3-4.4,2.6-1.1,6c-2.9,1-5.5,2.2-7.5,3.4c-2.6-3.7-6.3-2.8-10.2-2.1
						c-3.9,0.8-8.2,1.4-11.4-2.7c-1.9,2.1-9.2,2.9-16.4,4.1c-7.3,1.2-14.5,2.9-16.3,7c-0.2-1.1-1.9-1.7,1.3-1.7
						c-6.6-1.2-13.1-2.5-19.2-0.4l-2.5-6.3c-1.2,0.6-2.6,1.2-4,1.9c-1.4,0.6-2.7,1.3-4,1.9c-2.6,1.3-5.1,2.7-7.6,4.1
						c-4.5-1.9-7.7-3.3-8.7-4.9c-0.9-1.6,0.3-3.3,4.8-5.7c-10.8,3.7-15,4.5-18.9,5.2c-3.9,0.7-7.3,1.4-16.3,5l0.9-3.9
						c-3.2,0-7.3,1.3-11.1,2.1c-3.8,0.8-7.3,1.1-9-0.6c-0.9-0.6-2.1-1.1-3.4-1.6c-1.3-0.5-2.8-1-4.4-1.4c-3.3-0.9-7.1-1.7-11.2-2.7
						c-4.1-1-8.4-2.1-12.4-3.5c-2.1-0.8-3.4-1.4-4.9-2.2c-1.5-0.8-2.8-1.9-4.1-3c-1.9-1.9-3.4-4.2-4.4-6.7c-1-2.3-1.7-5.5-1.9-8.9
						c-0.2-3.3,0-6.9,0.6-10.4c0.3-1.7,0.7-3.5,1.2-5.2c0.5-1.7,1-3.4,1.7-5c-3.1,1.1-4.2,0.8-4.2-0.4c0-0.6,0.2-1.4,0.7-2.3
						c0.4-0.9,1-2,1.7-3c2.5-4.4,6-9.4,1.8-11.3c3.2-1.2,6-5.1,6.8,0.7c0.5-4.2,1.7-7.9,2.9-11.1c1.3-3.2,2.8-6,4.1-8.7
						c2.6-5.4,4.5-10.3,3.6-17.6c3.4-0.8,2.1,5.2,4.4,4.2c0-1.6,0.2-6.3,2.5-7.4c2.3-1,1,3.4,0.9,6.5c0.9-2.1,1.6-4.1,2.1-5.9
						c0.5-1.9,0.8-3.6,1-5.1c0.3-3.1-0.1-5.6-0.9-7.6c-1.6-4.1-5-6.6-8.4-8.9c7.5-7.4,9-12,7.3-20.6c3.8-2,8.7-6,4.5,5.3
						c0.8-1.5,2.5-4.5,4.5-8.1c2-3.7,4.4-8,6.5-12.2c1.1-2.1,2-4.2,2.9-6.2c0.9-2,1.6-3.8,2.1-5.5c1-3.3,1.1-5.8-0.2-6.6
						c2.4-1.2,4.7-8.1,4.8-10c7.3-13.1,8.4-13.9,15.1-27l-2.9,3c-1-2.2-1.2-4-0.8-5.7c0.4-1.6,1.2-3.1,2.4-4.7
						c2.3-3.1,5.7-6.4,8.5-11.5l0.5,0.7c2.4-2.5,4.2-4.5,5.7-6.2c1.5-1.6,2.6-3,3.4-4.1c1.6-2.2,2.2-3.6,2.8-4.9
						c0.5-1.4,1.2-2.6,3-4.7c0.9-1,2-2.3,3.6-3.8c0.8-0.8,1.7-1.6,2.7-2.5c1.1-0.9,2.2-1.8,3.6-2.9l-4.7-1.8c-1.7-2.1-1.3-4,0.4-6
						c0.8-1,1.9-2,3.2-3.1c1.3-1,2.9-2,4.6-3c3.3-2.1,7-4.4,10.5-6.7c3.4-2.4,6.4-5.2,8.5-8.5c-1.9,0.6-4,1.2-5.9,2
						c0.4-1.1,1.1-2,2.1-2.7c1-0.8,2.2-1.4,3.6-1.9c1.4-0.5,2.9-1,4.6-1.3c1.6-0.4,3.4-0.6,5.2-0.8c3.5-0.4,7-0.8,10.3-1.2
						c3.2-0.4,5.9-1,7.7-2.1c1.9-0.5-1.2,2.9-2.6,5c2.5-1.2,4.4-2.1,5.7-3c1.3-0.8,2.2-1.5,2.7-2.1c1-1.2,0.4-2.1-0.3-3.1
						c-1.6-1.9-4.3-4.2,1.5-9.9c4.4,0.8,2.4,9.1,11.2,3c1.5-0.3,3.4-2.1,5.6-4.8c1.1-1.3,2.3-2.9,3.7-4.6c1.4-1.7,2.8-3.4,4.3-5.2
						c1.5-1.8,3.2-3.6,4.9-5.3c1.7-1.7,3.5-3.4,5.3-4.8c3.7-2.9,7.7-5.1,11.8-5.8c-4.2-0.4-8.5-0.7-3.1-6.6
						c9.4-7.3,32.4-8.9,37.3-21.7c1.7-0.2,2.5,0.1,2.9,0.6c3.3-3.3,9.3-8,14.6-12.8c1.3-1.2,2.7-2.4,3.9-3.5
						c0.6-0.6,1.2-1.2,1.8-1.7c0.5-0.5,0.9-1,1.4-1.5c1.8-2,3.3-3.9,4-5.6c3.8,2.6,8.5,1.8,13.7-0.8c5.2-2.5,10.8-6.8,16.1-11
						c10.7-8.5,20.1-17,24-10.4c8.2-5.4,16.4-11,24.4-17.2l0.3,1.7c8.2-5.3,13-10.2,16-14.5c3.1-4.3,4.4-8.1,5.5-11.9
						c4-2.6,2.7,0.8,2.9,1.7c5.8-4.8,10.1-9.3,13.3-13.6c0.8-1,1.6-2.1,2.3-3.2c0.3-0.5,0.7-1,1-1.6c0.3-0.6,0.6-1.1,0.9-1.7
						c0.3-0.5,0.6-1.1,0.9-1.6c0.3-0.6,0.6-1.2,0.8-1.8c0.5-1.2,1-2.3,1.4-3.5c1.6-4.7,2.4-9.4,2.1-14.8c-0.2-2.7-0.5-5.5-1.4-8.5
						c-0.8-3-2.1-6.2-3.9-9.4c1.3-1.3,2.7-2.8,3.9-4.3c-1.4-1.8-2.7-6-5.4-11.4c-0.7-1.3-1.4-2.8-2.3-4.3c-0.9-1.5-1.8-3.1-2.9-4.6
						c-0.5-0.8-1.1-1.6-1.7-2.4c-0.5-0.7-1.1-1.4-1.7-2.1c-1.1-1.5-2.3-2.8-3.6-4.2c-1.3-1.4-2.7-2.7-4.1-4.1
						c-1.4-1.4-3-2.6-4.5-3.9c-1.6-1.2-3.2-2.5-4.9-3.6c-1.7-1.1-3.4-2.3-5.2-3.2c-7.1-4-14.8-6.7-22.1-7.6c0.5-0.4,1.3-1.2,3.8-1
						c-8.4-1.5-16.8-3.9-25.4-6.5c-8.5-2.5-17-5.2-25-7.1c-15.9-3.8-29.5-4.7-35.3,4.1c-6.6,1.2-13.2,2.5-19.7,3.9
						c12.6,1,11.6,2.9,8.7,5c-2.8,2.1-7.5,4.3-2.4,6c-9.8,0.8-25.3-5.8-13.2-6.6l1.9,0.9c2.3-4.7-5.4-5.6-13.7-6.2
						c-8.3-0.5-17-0.7-16.6-3.9c-24.6,0.1-48.7-1-72.1-3.1c-5.8-0.5-11.6-1.1-17.4-1.7l-4.3-0.5l-2.1-0.2l-1.1-0.1l-1-0.1
						c-1.3-0.2-2.6-0.3-3.9-0.5l-3.8-0.6c-10-1.8-19.4-4.6-27.2-8.2c0.1,1.4,0.2,2.8,0.4,4.2c0.2,1.4,0.4,2.8,0.7,4.2
						c-4.2-1.8-8.1-3.8-11.6-6.2c-0.5-0.8-0.7-1.7-0.7-2.4c0-0.7,0.3-1.4,0.8-1.7c0.5-0.4,1.3-0.5,2.3-0.3c1,0.3,2.4,0.8,4.2,1.9
						c-1-2.9-4.1-3.8-7.3-4.2c-3.1-0.4-6.4-0.5-7.1-0.1c-0.6-0.9-1-1.6-1.3-2.3c-0.3-0.7-0.4-1.3-0.6-1.7c-0.2-1-0.1-1.6,0.3-1.9
						c0.3-0.4,0.8-0.5,1.4-0.4c0.6,0,1.3,0.2,2.1,0.4c2.9,0.8,6.5,2.1,5.1,0.7l-1.1-0.8c-0.3-0.3-0.6-0.6-0.9-0.9l-0.5-0.4
						c-0.2-0.1-0.3-0.3-0.4-0.5c-0.3-0.3-0.6-0.6-0.9-0.9l0,1.4c-0.6-0.2-1.2-0.3-1.8-0.5c-0.6-0.2-1.1-0.3-1.6-0.4
						c-1.1-0.3-2-0.6-2.9-1.1c-1.8-1-3.6-2.9-4.5-7.6c0.1-3.1,1.2-4,2.2-4.4c0.9-0.4,1.8-0.4,1.8-1.5c0.3,0,0.4-0.2,0.5-0.7
						c0-0.3,0-0.6-0.1-1.1c-0.1-0.4-0.2-1-0.3-1.7c0.2-4.6,1.2-9.5,2.7-14.6l-1.8,1.2l-1.7,1.3c-1.1,0.8-2.4,1.8-3.5,2.7
						c-1.7-7.8,4.4-15.8-4.3-9.5c1.6-1.2,3.2-3,4.8-5.3c0.8-1.2,1.7-2.4,2.5-3.8c0.9-1.4,1.6-2.9,2.6-4.4c0.9-1.5,1.8-3.2,2.7-4.8
						c0.9-1.7,2-3.4,2.9-5.1c0.5-0.9,0.9-1.8,1.5-2.6c0.5-0.9,1.1-1.8,1.6-2.6c1.1-1.8,2.1-3.6,3.2-5.3c4.3-7.1,9.2-13.9,13.3-19.2
						c2.1-2.6,4-4.9,5.7-6.6c1.7-1.7,3-2.9,4-3.4c1.1-2.9,2.6-5.6,4.2-8.3c1.6-2.6,3.6-5.1,5.6-7.5c2.1-2.4,4.4-4.7,6.8-7.1
						c2.5-2.3,5.1-4.7,8-7.1c-1.8,0.8-4.2,0.4-4.9-1.2c-0.7-1.6,0.3-4.5,5.4-8.6c2.7,6.6,8.1,3.7,14.6-0.7
						c6.6-4.4,14.4-10.2,21.5-9.8c-5.7,0.5,1.2-5.7,7.5-11.6c6.3-5.9,11.9-11.7,3.3-10.7c9.3-6,3.6,3.5,12.1,0.8
						c8.7-10.1,20.7-18.4,33.5-27.1c12.8-8.7,26.6-18.1,38.5-30.6c-0.9-1.6-6.8,0.3-3.4-6.6l4.7-1.6l2.4-0.8l2.3-0.7l8.9-2.6
						c1.9-2.4,1.2-5.2,1.6-7.9c0.4-2.6,1.8-5.1,8.1-6.7c-2.2,0-5.5-0.1-2.7-3.3c13-8.8,25.4-18.4,37.9-28.2
						c12.5-9.9,24.9-20,37.8-29.9c12.8-9.9,26-19.6,39.8-28.5c3.4-2.2,6.9-4.4,10.5-6.5c3.6-2.2,7.2-4.3,10.8-6.4
						c7.2-4.1,14.4-7.7,21.7-10.5c-4.3,1-5.5,0.7-4.8-0.4c0.6-1.1,2.9-3,5.5-4.8c-3.8,1.7-2.4-3.6-4.5-5.1
						c8.3-3.2,16.6-5.8,24.5-7.4c0.2-2,1.7-3.7,3.9-5.2c1.9-1.4,4.8-2.5,7.9-3.7c3.1-1.2,6.6-2.4,9.2-3.9c0.7-0.4,1.3-0.8,1.8-1.1
						c0.6-0.4,1.1-0.8,1.5-1.2c0.8-0.8,1.3-1.7,1.4-2.6c-2.9,1.7-5.7,3.2-8.4,4.6c4.4-5.7-1.2-7.9-7.5-10.3
						c-3.2-1.2-6.7-2.4-9.6-3.7c-2.9-1.4-5.3-2.9-5.8-5.3c-0.6,0.9-1.4,1.6-2.1,2.3c-0.7,0.7-1.5,1.3-2.3,1.8
						c-1.7,1.1-3.5,2-5.6,2.7c-4.1,1.6-9,2.7-14,4.3c-5,1.6-10.1,3.6-14.5,6.6c-4.4,3-8.1,7-10.5,12.7c-4.9,1.3,1.3-4.9-2-5.1
						c-1.8,6.5-6.3,11.2-16.7,16.6l0.5-1.6c-13,10.2-23.1,16.6-33.9,22.9c-10.8,6.3-22.3,12.6-38.3,23l5.1,2.1
						c-6.9,4.4-9.2,4.3-12.9,5.7c-1.5,5.7,3.1,2.3,7.8-1.1c4.8-3.4,9.7-6.7,8.6-1c-7.2-0.6-18.7,8-29.8,16.6
						c-11.1,8.6-21.7,17.1-28.1,15.5c-4.9,4.2-3.2,4.6-1.6,5c1.6,0.4,3.2,0.8-1.6,5l-4.5,0.1l0.2,5c-6.6,5.2-12.2,5.4-14.2,3.8
						c1.7-1.2,3.8-4.5,5.2-6.2c-2.6,1.2-5.3,3.3-7.9,5.6c-2.6,2.4-5,5.1-7.3,7.8c-0.5,0.7-1.1,1.3-1.6,1.9c-0.5,0.6-0.9,1.1-1.3,1.6
						c-0.9,1.1-1.7,2.1-2.4,2.9c-1.5,1.8-2.7,3-3.5,3.4c3.2-2.1,6.2-4.2,9.2-6.4c-5,6-11,12-17.5,17.8c-6.5,5.9-13.5,11.6-20.6,17.4
						c-14.1,11.6-28.4,23.3-39.4,35.9l3.3,0.2c-8.6,9.4-12.9,12.1-17.6,14.8c-4.7,2.7-9.9,5.3-19.9,15.2l0.4-1.1
						c-2.8,5.3-7.7,11.1-13.5,16.1c1.7-3.3-1.6-2.1-4.7-0.9c-3.1,1.2-6.1,2.1-3.7-2.2c-2.2,2.8-4,5.1-5.4,7.1
						c-1.4,2-2.5,3.5-3.3,4.8c-1.6,2.5-2.2,4-2.6,5.3c-0.3,1.3-0.3,2.5-0.7,4.5c-0.2,1-0.5,2.2-0.9,3.8c-0.4,1.6-1,3.5-1.8,5.9
						c-1.9,0.2-3.8,0.4-5.6,0.7c-1.6,7.1-0.8,8.4-8.7,20.1c1.1-2.8,1.1-4,0.4-4.3c-0.7-0.4-1.9,0-3.2,0.4c-2.5,0.8-5.1,1.3-2.6-5.3
						c-3.2,2.4-5.8,4.9-8.2,7.5c-2.2,2.6-4.2,5.2-5.8,7.8c-1.5,2.6-2.8,5.2-4,7.7c-1.1,2.5-1.9,4.9-2.8,7.2
						c-0.9,2.2-1.5,4.5-2.3,6.5c-0.4,1-0.8,2-1.2,2.9c-0.4,0.9-0.9,1.8-1.3,2.7c-1.8,3.6-4.5,6.4-8.5,8.9c1.1,4.4,2.6,5,4.2,3.7
						c1.6-1.3,3.2-4.5,5-7.9c0.9-1.7,1.7-3.5,2.4-5.1c0.8-1.6,1.5-3,2.1-4.1c1.2-2.2,1.8-3.1,1.4-1.1c3-2.2,3.3,1.3,2.4,6.3
						c-0.9,5-2.8,11.5-4.8,15.7c-0.4,1.1-1.1,2.1-1.8,3.1c-0.7,1-1.6,1.9-2.5,2.9c-2,1.9-4.1,4-6.5,6.7c-1.1,1.4-2.3,2.9-3.4,4.7
						c-1.1,1.8-2.1,3.8-3,6.2c-1.7,4.7-2.9,10.7-2.1,18.4c-0.2-1.5-0.3-2.3-0.6-3.1c-0.2-0.8-0.4-1.6-0.5-3.1
						c-0.3,1.4-0.4,2.9-0.4,4.3c0,1.4,0.2,2.9,0.4,4.3c0.1,0.7,0.3,1.4,0.4,2.2c0.2,0.7,0.4,1.5,0.6,2.2c0.5,1.5,0.9,2.9,1.5,4.4
						c0.6,1.5,1.1,2.9,1.7,4.4c0.6,1.5,1.2,3,1.8,4.6c0.6,1.5,1.2,3.2,1.8,4.9c0.6,1.7,1.2,3.4,1.7,5.4c1.2,0.5,2.3,1.1,3.3,1.8
						c1,0.7,1.8,1.4,2.6,2.2c0.8,0.8,1.5,1.5,2.2,2.3c0.7,0.8,1.4,1.5,2.1,2.2c0.7,0.7,1.3,1.4,2,1.9c0.7,0.5,1.4,0.9,2.1,1.2
						c1.4,0.5,2.9,0.5,4.6-0.7c-3.4-2.7-6.8-5.7-9.7-9.2l-1.1-1.3l-1-1.4c-0.7-0.9-1.4-1.8-2-2.8c-1.2-1.9-2.5-3.9-3.6-5.9
						c2,3.4,4.9,6.2,7.9,8.8c0.8,0.6,1.6,1.2,2.4,1.8c0.8,0.6,1.6,1.2,2.5,1.7c1.7,1.1,3.4,2.2,5.2,3.2c3.5,2.1,7.2,4,11.1,6.3
						c3.8,2.3,7.9,4.8,12.4,8c-1.1,0.4-3.4,0.4-5.9,0.1c-1.3-0.2-2.7-0.4-4-0.7c-1.3-0.3-2.7-0.6-3.8-1.1c1.1,1.4,2.5,2.4,4,3.2
						c1.5,0.8,3,1.3,4.6,1.9c1.6,0.5,3.1,1,4.6,1.7c1.5,0.6,3,1.4,4.4,2.6c-1.1,1.7-3.5,2-6.7,1.3c-1.6-0.4-3.4-0.9-5.4-1.8
						c-1-0.4-2-0.9-3-1.4c-1-0.5-2.1-1.1-3.2-1.7c-4.3-2.4-8.8-5.5-13.2-8.8c-4.3-3.4-8.5-6.8-12.4-9.7c0.3,1.1,1,2.4,1.9,3.7
						c0.9,1.2,2.1,2.5,3.4,3.7c1.3,1.2,2.7,2.3,4.1,3.3c1.4,1,2.9,1.9,4.2,2.7c1.3,0.8,2.5,1.5,3.4,2.1c1,0.6,1.7,1.2,2,1.7
						c0.7,1,0.1,1.8-2.9,2.3c2.1-0.2,4-0.2,5.8,0.2c1.8,0.3,3.5,0.7,5.2,1.4c1.7,0.7,3.3,1.4,5,2.3c1.7,0.8,3.4,1.7,5.2,2.7
						c3.5,1.8,7.3,3.6,11.5,4.6c1,0.3,2.1,0.5,3.2,0.6c1.1,0.1,2.2,0.2,3.3,0.3c2.2,0.1,4.6-0.2,6.9-0.8l-2.1,4.4
						c3-0.1,9.2-1.3,14.2-0.6c-3.3,1.7-6.7,3.3-10.3,4.7c1-0.2,1.9-0.3,2.9-0.3c0.9-0.1,1.9-0.1,2.8-0.1c1.8,0,3.6,0.2,5.3,0.5
						c1.7,0.3,3.5,0.7,5.2,1c0.9,0.2,1.7,0.4,2.6,0.7l2.4,0.7c6.1,1.8,12.3,3.9,18.6,2.7c-13.1-0.5-14.5-2.1-14-3.9
						c0.5-1.9,2.9-4-2.5-6.1c8.1-1.1,13.2-0.9,17,0.1c3.7,1,6.1,2.7,8.6,4.6c4.9,3.7,10.5,8.1,28.3,7.1c-4.8,0.6-18.1-3.1-10.5-5.2
						c6.8,1.1,15.7,3,19.8,5.5c23.4-0.9-3.6-4.9,6.4-7.8c7.9,5.8,11.5-2.3,21.6-4.1l0.1,4.8c13.2,1.6,14.9-0.9,16.3-3.3
						c1.4-2.4,2.5-4.8,14.4-2.7c-3.4,2.2-6.7,4.4-10.1,6.6l12.4-1.6l-2.6,5.5c6.8-1.9,11.1-2.6,15.4-2.6c4.3,0,8.5,0.8,14.8,1.8
						c-2.8-3.5,2.1-8.8,13.4-8.2c3.7,1.7,2.6,2.8,2.5,3.5c-0.1,0.7,0.9,1,8.8,1.4c-3.9,2.7-7.9,6.1-14.5,1.2
						c-0.8,1.5-3.7,2.8-4.5,4.3c4,1.9,9,2.4,13.8,2.6c4.7,0.2,9.1,0,11.9,0.4c-2.1-0.5-4.6-1-5.8-1.8c7.6-1.4,15.3-2.6,22.9-3.4
						c3,2.5,0.1,3.3-2.8,4.2c4.4,0.3,7.9-1.3,14.1-0.1c-1.3,1.7-2.1,3.6-3.7,4.9c-1.6,1.4-3.9,2.3-8.4,2.4
						c6.8-0.1,13.4,0.1,19.8,0.7c0.2,0.5,0.7,1.2,1.4,2c0.7,0.8,1.4,1.7,2.1,2.6c0.7,0.9,1.2,1.7,1.4,2.3c0.2,0.6,0.1,1.1-0.6,1.2
						c1,0.7,2.1,1.3,3.2,1.8c0.6,0.2,1.2,0.5,1.8,0.7c0.6,0.2,1.2,0.4,1.9,0.6c1.3,0.3,2.6,0.7,4,1c0.7,0.2,1.3,0.4,2,0.5l1,0.3
						l1,0.3c0.7,0.2,1.4,0.4,2,0.6c0.6,0.3,1.3,0.5,1.9,0.8c0.7,0.2,1.2,0.6,1.8,0.9c0.3,0.2,0.6,0.3,0.9,0.5l0.8,0.5l0.8,0.5
						c0.2,0.1,0.2,0.2,0.3,0.2l0.2,0.2c0.3,0.2,0.6,0.5,0.8,0.8c0.4,0.5,0.6,1.2,0.6,1.9c0.8-0.1,1.8,0,2.7,1c0.3,1.3,0,2.7-0.5,3.9
						c-0.5,1.2-1.2,2.2-1.9,3.2c-0.3,0.5-0.6,0.9-0.9,1.4c-0.1,0.1-0.1,0.2-0.2,0.4l0,0.1l-0.1,0.1l-0.2,0.3
						c-0.1,0.2-0.2,0.4-0.3,0.6c-0.1,0.2-0.3,0.5-0.4,0.8c-1,2.2-2.2,5-3.6,8.5c-3.5,0.5-7.1,0.8-10.7,1c-3.7,4.5-0.2,4.3,2.9,4.6
						c1.5,0.2,2.9,0.5,3.1,1.9c0.2,1.3-0.8,3.6-4.5,7.7c-2.6,2.9-4.5,4.3-5.9,4.7c-1.4,0.5-2.3,0-2.9-0.7c-1.4-1.5-2.1-4.2-4.8-3.3
						c-2,3.7-4.8,9-9.3,13.8c-4.5,4.8-10.6,9.1-18.6,10.5C813.2,587.7,817,586.5,820.7,583.6z M666.9,682.4
						c2.4-2.9,6.5-9.8,10.3-8.9C676.9,680.4,672.9,680.1,666.9,682.4z M513.1,917.7c-0.4-3,2-6.4,5.6-9.8
						C517.6,911.1,515.9,914.5,513.1,917.7z M865.7,1288.5c0.1-0.1,0.1-0.2,0.2-0.4c3.7-1.2,4.9-1.6,4.6-1.4
						C870,1286.8,868.1,1287.5,865.7,1288.5z M851.5,1295.2c-1.1,1.5-0.6,2,0.4,2.2c0.2-0.8,1-1.8,2.4-2.9c1.2-0.9,2.6-1.8,4.4-2.8
						c-0.8-0.2-1.7-0.3-2.8,0.2c-0.6,0.2-1.2,0.6-1.8,1.1C853.3,1293.5,852.4,1294.2,851.5,1295.2z M557,413.6
						c-0.4,0.8-0.8,1.5-1.1,2.3c-0.1-0.3-0.2-0.6-0.3-0.8c-0.1-0.3-0.1-0.5-0.2-0.7c-0.1-0.4-0.2-0.8-0.2-1.1
						c-0.1-0.6,0-0.8,0.1-0.9C555.6,412.3,556.3,413,557,413.6z"/>
					<path class="st0" d="M520.1,886.4c1.2-0.6,2.1-0.4,3-0.3C522.9,884.5,522.1,884.1,520.1,886.4z"/>
					<path class="st0" d="M865.6,531.1c0-0.1,0-0.1,0-0.2c-0.3,0.1-0.6,0.2-0.9,0.3C865,531.2,865.3,531.1,865.6,531.1z"/>
					<path class="st0" d="M892.8,1110.6c-2-2.3-3-4-3.4-5.4c-0.4,0.4-0.4,1.1,0.1,1.9C890,1108,891,1109.1,892.8,1110.6z"/>
					<path class="st0" d="M778.9,1346.1l8.4-6c-4.3,2.6-6.3,2.5-8.9,3C779.1,1344.1,781.6,1344.6,778.9,1346.1z"/>
					<path class="st0" d="M691.6,1373.3c-0.7,1.5-2.3,2.3-3,3.7l1.8,1.3C695,1373.8,697.2,1369.4,691.6,1373.3z"/>
					<path class="st0" d="M762.8,1336.7c-1.3-1.6-3.3-1.3-5.6,0c-1.2,0.6-2.4,1.5-3.6,2.4c-1.2,1-2.6,2-4,3.1c0.3-0.2,0.7-0.5,1-0.6
						c0.6,2.9,2.3,3.1,4.4,1.8c1.1-0.6,2.2-1.6,3.5-2.8C760,1339.4,761.4,1338,762.8,1336.7z"/>
					<path class="st0" d="M748.4,1343.1c-1.7,1.3-3.4,2.7-5.3,3.6C743.7,1349.1,745.5,1345.7,748.4,1343.1z"/>
					<path class="st0" d="M834.5,1309.1c-3.6,1,0.7,5.7-1.9,5.3c-0.5,3.3,4-1.2,6.6-4.9C841.7,1305.7,842.4,1302.8,834.5,1309.1z"/>
					<polygon class="st0" points="751.2,1327.9 755.9,1331 757.5,1325.5 					"/>
					<path class="st0" d="M803.6,1303.5l-10.9,4.4c0.6,0.7-0.5,1.8-1.9,3C797.1,1307.6,804.6,1304.7,803.6,1303.5z"/>
					<path class="st0" d="M790.7,1310.9c-3.4,1.7-6.4,3.5-7.9,5.2C784.6,1315.1,788.4,1312.9,790.7,1310.9z"/>
					<polygon class="st0" points="764.4,1318.9 767.9,1318.1 775.3,1314.5 					"/>
					<path class="st0" d="M910.9,1237.1c3.1-3,6.2-6.1,9.2-9.3c-0.2-2.2-3.4-0.6-6.7,2.9C911.7,1233.5,908.3,1237,910.9,1237.1z"/>
					<path class="st0" d="M871.3,1247.1c3.5-0.9,4.2-0.1,6.7,0.3l-3-5.5L871.3,1247.1z"/>
					<path class="st0" d="M900.6,1225.8c0-0.5,0.7-1.7,1.5-3c0.8-1.3,1.8-2.8,2.4-3.9c0.6-1.1,0.8-1.8,0.2-1.7
						c-0.6,0.2-2.1,1.2-5,3.6c0.1,1.1-2.1,3.7-3.1,5.3C895.5,1227.9,895.7,1228.6,900.6,1225.8z"/>
					<path class="st0" d="M886.2,1086.2c0.9,0.5,1.9,1,2.8,1.5l4.8-9C891.2,1081.2,888.7,1083.7,886.2,1086.2z"/>
					<path class="st0" d="M726,1083.4c7.8,0.6,8.5-1.1,9.1-2.6c0.6-1.5,1-3,7.9-2c3.3-2.7-11.2-1.6-7.8-3.9
						C726.3,1078.1,721.2,1077.1,726,1083.4z"/>
					<path class="st0" d="M735.2,1074.8c1.4-0.5,2.9-1.1,4.5-1.9C737.1,1073.8,735.9,1074.4,735.2,1074.8z"/>
					<path class="st0" d="M968.4,40.4c3.2-0.4,6.8-0.9,10.8-1.7c-1.4-0.1-2.8-0.1-4.1-0.3c-1.3-0.1-2.6-0.3-3.8-0.4
						C970.2,38.8,969.3,39.6,968.4,40.4z"/>
					<path class="st0" d="M985.5,25c1,0.7,1.9,1.4,3,2.1c1,0.7,2.1,1.3,3.1,1.9c1.5-3.2,2.8-6.6,3.8-9.9c-0.6,0.6-1.3,1.3-2.2,2
						c-0.8,0.7-1.7,1.4-2.7,2C988.7,24.3,986.8,25.1,985.5,25z"/>
					<path class="st0" d="M636.3,689.5l0.4,1.7c1.2,0.1,2.2-0.1,3.5-0.8c1.3-0.7,2.8-1.8,4.8-3.1C642,687.9,639.2,688.7,636.3,689.5
						z"/>
					<polygon class="st0" points="751.7,617.6 749.7,618.6 756.4,621.4 					"/>
					<path class="st0" d="M838,556c-3,2.1-5.8,5.9-9.2,8c3.2-2.9,6.8-3.6,8.9-4.3C840,559,840.7,558.5,838,556z"/>
				</g>
			</g>
		</g>
	</g>
</g>
</svg>
