<?xml version="1.0" encoding="utf-8"?>
<!-- Generator: Adobe Illustrator 26.5.0, SVG Export Plug-In . SVG Version: 6.00 Build 0)  -->
<svg version="1.1" id="Layer_1" xmlns="http://www.w3.org/2000/svg" xmlns:xlink="http://www.w3.org/1999/xlink" x="0px" y="0px"
	 viewBox="0 0 1440 1689" style="enable-background:new 0 0 1440 1689;" xml:space="preserve">
<style type="text/css">
	.st0{fill:#F38098;}
</style>
<g>
	<g>
		<g>
			<g>
				<g>
					<path class="st0" d="M519.6,1971.9c-0.3,4.3,3.9,2.6,4.6,3.2C523.2,1968.1,518.6,1972,519.6,1971.9z"/>
					<path class="st0" d="M517.9,1899.7l1.4,1.6l-0.8-5.7l-0.6-5.8l0,4.9C517.8,1896.4,517.8,1898.1,517.9,1899.7z"/>
					<path class="st0" d="M540.2,1834.7c-4.6,1.5-6.9,7.5-8.7,14.3c-1.8,6.9-3.1,14.5-6.2,20l-2.2,1.4c1.2,2.4,2.5,4.7,3.8,7
						c1-3.6,1.7-7.5,2.7-11.5c0.9-4,1.8-8.1,2.9-11.9c0.5-1.9,1.1-3.9,1.6-5.7c0.6-1.8,1.2-3.6,1.9-5.2c0.6-1.6,1.3-3.2,2-4.6
						C538.6,1837,539.4,1835.8,540.2,1834.7z"/>
					<path class="st0" d="M570.2,1809.1c-1.8,0.3-1.3-1.7-1.3-1.9c0.1-0.2-0.4,1.4-3.5,8.8c0.6-0.6,0.9-0.7,1.3-1
						C567.5,1813.8,568.4,1812,570.2,1809.1z"/>
					<path class="st0" d="M566.8,1815C563.7,1821.4,571.1,1812.1,566.8,1815L566.8,1815z"/>
					<path class="st0" d="M581.9,1785.9c-0.9,3.1-1.9,6.2-2.8,9.3c2.4-0.8,7.1-7.7,6.5-4.4c1.9-4.4,2.4-6.4,1.6-6.9
						C586.5,1783.3,584.5,1784.3,581.9,1785.9z"/>
					<path class="st0" d="M582.4,1775.5l-1.8,4.7C581.6,1779.9,582.5,1778.9,582.4,1775.5z"/>
					<path class="st0" d="M577,1790.2c1.2-3.3,2.3-6.7,3.6-10c-1.7,0.5-3.8-0.6-1.9,4.5C577.4,1782.8,578,1785.7,577,1790.2z"/>
					<path class="st0" d="M573,1794.7c-4,3.7-8.3,9.3-5.7-0.2c-2.1,4-3.2,7.2-3.7,9.2c-0.5,2-0.3,3.1,0.4,3.1c0.7,0,1.9-1,3.5-3
						c0.8-1,1.6-2.3,2.5-3.8C571,1798.4,572,1796.7,573,1794.7z"/>
					<path class="st0" d="M534.9,1828.4l-4.9,5.8c-0.1,2.3-0.2,4.5-0.3,6.8C529.8,1837.6,537.1,1828.9,534.9,1828.4z"/>
					<path class="st0" d="M618.9,1740.2c-0.8-1.4-5.1,0-7.1-0.6c-1,2.2-2,4.4-2.9,6.6C611.9,1743.9,616.8,1739.1,618.9,1740.2z"/>
					<path class="st0" d="M611.8,1739.5c1.4-3.3,3-6.6,4.5-9.9C610.1,1736.8,610.1,1739,611.8,1739.5z"/>
					<path class="st0" d="M576.7,1769.7l-2.4,8.8c-0.8,2.9-1.5,5.9-2.3,8.8c2-6.8,4.2-13.7,6.5-20.5L576.7,1769.7z"/>
					<path class="st0" d="M644.8,1709.8c-0.5,2.2-0.9,4.5-1.3,6.8c1-3.8,2.1-7.6,3.1-11.4L644.8,1709.8z"/>
					<path class="st0" d="M663.3,1688.2c-0.5,2.7,1.5,2.3,3.4,1.8c1.9-0.5,3.6-1,2.6,1.4c2.3-3.1,4.1-6.3,5.6-9.5
						c1.4-3.2,2.5-6.3,3.6-9.3c-1.5,2.8-3.5,5.4-5.9,7.9C670.1,1683.2,667.1,1685.7,663.3,1688.2z"/>
					<path class="st0" d="M682.3,1663.1c-1.5,2.8-2.6,6-3.8,9.6C680.1,1669.7,681.5,1666.6,682.3,1663.1z"/>
					<path class="st0" d="M628.4,1716.3c1.2,0,4.1,0.3,8.7-3.4l-6,0.3C630.3,1714.1,629.4,1715.2,628.4,1716.3z"/>
					<path class="st0" d="M631,1713.2l0.2,0c3.1-3.3,5.2-5.6,6.1-6.6C636.5,1707.4,634.6,1709.4,631,1713.2z"/>
					<path class="st0" d="M627.7,1717.1c0.3-0.3,0.4-0.5,0.7-0.8C627.9,1716.3,627.6,1716.4,627.7,1717.1z"/>
					<path class="st0" d="M595.8,1749c1.8-6.4,7.7-18.5-2.9-10.5C592.6,1743.9,598.6,1739.3,595.8,1749z"/>
					<path class="st0" d="M620.3,1717.5c-2.6,2.7-5.4,5.4-8,8.1c1,0.5,3.6,0,2.6,3.1C616.6,1725,618.5,1721.3,620.3,1717.5z"/>
					<polygon class="st0" points="622.9,1712.4 620.3,1717.5 623.3,1714.6 					"/>
					<path class="st0" d="M666.3,1675.8c1.9-5.1,5.4-9.4,9.2-14.4c-2.5,2.3-4.9,4.7-7.3,7.1c-2.4,2.5-4.7,5-6.8,7.5
						C661.7,1677.7,661.6,1681.5,666.3,1675.8z"/>
					<path class="st0" d="M648.6,1694.2c0.2-0.3,0.4-0.7,0.6-1C648.5,1693.5,648,1693.8,648.6,1694.2z"/>
					<path class="st0" d="M715.1,1616.2c-0.4,0.1-0.8,0.1-1.2,0.2c0.1,0.2,0.3,0.4,0.4,0.7L715.1,1616.2z"/>
					<path class="st0" d="M660,1676.4c-3.9,3.3-5.2,6.3-6.1,9.4c2.2-3.2,4.7-6.4,7.5-9.7C661.1,1675.4,660.9,1675,660,1676.4z"/>
					<path class="st0" d="M691.8,1648.8c-2.4,1.4-4.8,3.1-7.4,5C687.1,1652.8,692.1,1650.2,691.8,1648.8z"/>
					<path class="st0" d="M651.3,1692.7c-0.1,0.2-0.2,0.5-0.4,0.7C652.7,1692.7,652.3,1692.6,651.3,1692.7z"/>
					<path class="st0" d="M651.3,1692.7c1.3-2.4,1.9-4.7,2.6-6.9c-1.8,2.6-3.4,5.1-4.6,7.4C649.9,1692.9,650.7,1692.7,651.3,1692.7z
						"/>
					<path class="st0" d="M708.1,1584c0.5,0.9,0.5,2.2,0,3.9c-0.5,1.7-1.4,3.7-2.8,5.7c-2.8,4-7,8.4-12.5,11.2
						c-2.7,5.2-0.3,8.6,4.1,10.4c2.2,0.9,5,1.4,7.9,1.6c2.9,0.2,6.1,0.1,9-0.4c-0.5-0.7-1.1-1.3-0.8-3c0.2-0.8,0.5-1.9,1.2-3.4
						c0.7-1.5,1.8-3.3,3.3-5.7c-1.1,0.3-2.9,1.4-5,2.6c-2.1,1.3-4.4,2.8-6.5,4c-4.2,2.4-7.4,3.4-5.4-1.3c2.2-3.1,3.9-5.2,5.3-6.6
						c1.4-1.4,2.5-2.1,3.6-2.6c2.1-0.9,3.9-0.8,7.2-2.6c-1.9,0.2-2.4-0.8-2.1-2.6c0.3-1.7,1.4-4.1,2.5-6.7
						c2.2-5.1,4.8-10.6,1.1-12.2c-2.8,3.6-5.3,7.4-7.9,11.1C709.3,1586.8,711.5,1582.1,708.1,1584z"/>
					<path class="st0" d="M699.3,1631.9l-2.7,3.8c4-3.5,7.7-5.4,14.6-8.4c1.8-3.5,2.8-5.7,3.1-7.3c0.4-1.6,0.2-2.4-0.1-3.1l-3.9,4
						l-3.9,4.1l-3.9,4.1l-3.9,4.2L699.3,1631.9z"/>
					<path class="st0" d="M682.9,1651.6c-0.9-5.6,5.1-15.4-3-13.2c-8.8,10.8-3.5,9.7-7.5,17.3c13.7-17.8-2.3,6.4,10-4.3
						c-2.3,3.8-4.7,7-7,10c3-2.8,6-5.3,9-7.6c-0.2,0.1-0.4,0.2-0.5,0.2l-0.1,0.1c0,0,0,0,0-0.1c-1,0.4-1.5,0.4-0.5-0.2
						c0-0.1,0.2-0.3,0.2-0.4C683.1,1653,683,1652.3,682.9,1651.6c4.9-4.3,1.5,0,0.6,1.8c0.1,0.2,0.2,0.5,0.3,0.6c0,0,0.1,0,0.1,0
						c4.2-6.2,8.4-12.3,12.7-18.4c-1.8,1.5-3.6,3.5-5.8,6C688.6,1644.3,686.1,1647.5,682.9,1651.6z"/>
					<path class="st0" d="M592.8,1723.4c0.7-0.3,1-0.1,1.2,0.1C594.6,1722,594.6,1721.3,592.8,1723.4z"/>
					<path class="st0" d="M600.6,1717.8c-0.5,1.7-0.1,3.8-3.7,7.6c-3.8,2.8-1.6-1.3-2.9-2c-1.1,3.2-4.4,10.7,3.4,4.1l0.5-1.6
						c3.4-3.1,7.9-6,11.5-7.9c3.7-1.9,6.4-2.8,6.1-2C611,1715.6,607.3,1715.5,600.6,1717.8z"/>
					<path class="st0" d="M641.3,1683.9c3.7-5.2,7.3-10.4,10.9-15.7c-3,1.6-6,3.3-9.1,4.8l2,1.1
						C637.3,1681.7,640.9,1681.8,641.3,1683.9z"/>
					<path class="st0" d="M718,1616.1l1.7,4.9c0.4-2,0.8-4,1.2-6l1.3-5.9C720.8,1611.5,719.4,1613.7,718,1616.1z"/>
					<path class="st0" d="M733.8,1599.4l2.1,3.5c0.9-2,1.8-3.8,2.7-5.8C737,1597.9,735.4,1598.6,733.8,1599.4z"/>
					<path class="st0" d="M732.6,747.6l3.8-4.2C734.5,745.3,733.3,746.5,732.6,747.6z"/>
					<path class="st0" d="M699.9,771.4l0.4,2.2C701.1,771.5,701.3,770.4,699.9,771.4z"/>
					<path class="st0" d="M742.8,1208.4c-4.3-1.5-8.8-3.4-12.1-4.4c-3.2-1-5.2-1.2-4.5,1l2.9,4.1
						C734.6,1207.7,739,1207.8,742.8,1208.4z"/>
					<path class="st0" d="M530.5,1054.3c-0.7,0.6-1.4,1.1-2.1,1.7c0.7,2.4,1.3,4.6,1.9,6.6C530.3,1060.1,530.4,1057.3,530.5,1054.3z
						"/>
					<path class="st0" d="M515.8,1042.5l6.5-8.9C520.5,1035.4,518.4,1038.3,515.8,1042.5z"/>
					<path class="st0" d="M866.5,622.9c-0.4-0.1-0.8-0.2-1.2-0.3c-0.4-0.1-0.8-0.2-1.2-0.2c-0.4-0.1-0.8-0.1-1.2-0.2
						c-0.4,0-0.8-0.1-1.2-0.1c0,0.2,0.1,0.3,0.2,0.4c0,0.1,0.1,0.2,0.1,0.3c0.1,0.2,0.3,0.3,0.4,0.4c0.3,0.2,0.6,0.2,1.1,0.2
						C864.3,623.4,865.4,623,866.5,622.9z"/>
					<path class="st0" d="M934.1,1450.1c6.7-4.4,11.6-8.8,15.3-13.2c-1,0.8-2,1.5-3,2.2c-1,0.7-2,1.3-2.9,1.9
						c-0.9,0.6-1.8,1.2-2.7,1.7c-0.9,0.5-1.7,1-2.4,1.5C935.5,1446.3,933.7,1448,934.1,1450.1z"/>
					<path class="st0" d="M747,794c2.2-2.6,2.9-4.2,2.2-4.9C746.9,791.8,745.8,793.6,747,794z"/>
					<path class="st0" d="M963,1416.4c-0.6,0.6-1.1,1.2-1.6,1.8c-0.5,0.6-1,1.2-1.6,1.7c-0.7,1.4-1.3,2.9-2,4.3
						c-0.7,1.4-1.5,2.8-2.4,4.2c-0.8,1.5-1.8,2.8-2.8,4.2c-0.5,0.7-1,1.4-1.6,2.1c-0.6,0.7-1.1,1.4-1.7,2.1c0.8-0.6,1.5-1.2,2.3-1.8
						c0.7-0.7,1.5-1.3,2.2-2.1c0.7-0.7,1.4-1.4,2.1-2.2c0.7-0.8,1.3-1.6,1.9-2.5c0.6-0.9,1.2-1.7,1.8-2.7c0.5-0.9,1-1.9,1.5-2.9
						C962,1420.8,962.7,1418.7,963,1416.4z"/>
					<path class="st0" d="M737.3,176.9c0.5-0.3,1.1-0.8,1.6-1C738.6,175.3,738.1,175.9,737.3,176.9z"/>
					<path class="st0" d="M938.2,54.4c-1.5,1.5-4.1,3.6-6.6,5.8C933,59.4,935,57.6,938.2,54.4z"/>
					<path class="st0" d="M810.7,1547.1C806.4,1550.2,810.2,1548,810.7,1547.1L810.7,1547.1z"/>
					<path class="st0" d="M780.1,1546.1c0.7-1,1-2,0.6-2.9C780.9,1544.3,780.7,1545.3,780.1,1546.1z"/>
					<path class="st0" d="M949.1,1354.2c0-0.2,0-0.3,0-0.4C948.4,1355.4,948.5,1355.1,949.1,1354.2z"/>
					<path class="st0" d="M802.9,1549.7c1.9-0.6,4.1-1.4,6.4-2.5C808.2,1547.5,806.2,1548.2,802.9,1549.7z"/>
					<path class="st0" d="M804.9,1550.9c-1.6,0.8-2.9,1.5-4.1,2.1C800.7,1553.9,801.4,1554,804.9,1550.9z"/>
					<path class="st0" d="M816.7,1543c-2.5,1.7-5,3.1-7.5,4.2c1-0.3,1.5-0.3,1.4-0.1C811.9,1546.3,813.7,1545,816.7,1543z"/>
					<path class="st0" d="M549.6,539.6c-0.2-0.4-0.5-0.8-0.7-1.2c-2.9-1.5-3.8-1.9-3.4-1.5c0.2,0.2,0.7,0.6,1.4,1.1
						c0.4,0.2,0.8,0.5,1.2,0.8C548.5,539,549,539.3,549.6,539.6z"/>
					<path class="st0" d="M611,1255.5c0.2,0,0.4-0.2,0.6-0.2c-0.2,0-0.5-0.1-0.8-0.1L611,1255.5z"/>
					<path class="st0" d="M592.3,1259c8.1-5.5,12.6-4.9,18.5-3.8l-6.3-12.4C600.5,1248.2,596.5,1253.6,592.3,1259z"/>
					<path class="st0" d="M811,692.5c-4.1,1.3-8.3,2.6-12.5,3.9c4.5-6.9,9-11.4,10.9-13.9c1.9-2.6,1.3-3.1-4.9-2
						c1.6,3,0.1,6.3-3.1,9.7c-3.2,3.4-8.2,6.9-13.2,10.4c-5,3.5-10.2,7-13.8,10.5c-3.6,3.4-5.6,6.9-4.1,10c-3,0.8-6,1.6-9.2,2.6
						c2.3-1.4,2.2-2.3,4.5-3.6c-4.6,1.1-7.4,2.7-9.3,4.8c-0.5,0.5-0.9,1.1-1.3,1.6c-0.3,0.5-0.5,1-0.7,1.5c-0.4,1-0.7,2.1-1,3.3
						c-1.2,4.6-2.5,10-11.8,15.6c-6.7,3.6-12.1,5.1-8.9,0.7L721,760.2c-4.1,2.7-4.5,0.1-0.4-2.6c-6.7,5.4-13.4,10.8-20.1,16.3
						l-0.1-0.4c-0.8,2-2.4,4.9-4.1,7.8c-1.7,2.9-3.4,5.8-4.6,7.6c-6.4,2.5,1.7-3.2-0.7-3.5l-4.7,5.8l-4.6,5.8
						c-3.4,0.5-3.3-1.8-1.3-5c1-1.6,2.4-3.4,4.2-5.2c1.7-1.7,3.7-3.5,5.8-4.9c-4.7-0.6-7.6-0.2-9.6,0.8c-2,1.1-3.2,2.8-4.7,5
						c-1.5,2.2-3.2,4.8-6.3,7.7c-1.5,1.5-3.4,3-5.8,4.5c-2.3,1.6-5.2,3.3-8.6,5c3.1-3.5,6.3-7,9.5-10.4c-5.9-0.1-10.5,2.3-15.6,5.6
						c-5,3.3-10.4,7.5-17.9,11.4c1.1-0.2,3.7-1.2,6.7-2.3c3-1.1,6.6-2.2,9.7-2.9c3.1-0.7,5.7-0.9,7-0.1c1.2,0.8,1.1,2.5-1.3,5.9
						c-2,1.1-4.2,2.6-6.5,4.8c-2.2,2.2-4.5,5.2-6.7,9.1c-0.9-0.8-1.8-1.1-2.9-0.8c-1.1,0.3-2.3,1.1-3.6,2.2
						c-2.6,2.3-5.8,5.9-9.3,9.9l-4.2-4.9c-3.3,4.9-4.3,7.7-4.6,10.3c-0.3,2.5-0.2,4.6-1.3,8.1c-2.3,2.3-4.2,4.1-6.1,5.4
						c-1.8,1.3-3.5,2.1-5.1,2.6c-3.2,1-5.9,0.7-8.5,0.7c-6.8,8.3-3,6.5,0.7,5.3c3.7-1.2,7.3-1.7,0.4,8.6c-3.1,3.1-5.6,6.3-7.8,9.5
						c-2.2,3.2-4.2,6.4-5.8,9.9c-1.7,3.5-3.3,7.2-4.9,11.2c-1.5,4-3,8.4-4.7,13.2c-7.6,9.2-2.5-3.7-6.1-0.9l-0.5,11.6
						c-1.3,2.2-2.3,0.7-2.8,0c-1.2,4.3,0.1,5.2,1.2,6.7c1,1.4,1.7,3.4-0.6,9.9c1.2,1.6,0.3,3.7-1.4,6.2c-1.8,2.5-4.6,5.5-7.6,8.8
						c-3,3.3-6,7.2-8.3,11.3c-2.3,4.1-3.8,8.6-3.7,13.2c-3.3,3.1-2.8-3.4-5.6-3.3c-1.1,5.8-2,9.9-2.6,13.2c-0.6,3.2-1,5.6-1.3,7.9
						c-0.7,4.5-0.8,8.7-1.1,18.7l-9.8,13.2c8.8-9.1,8.5,6.9,8.1,20.7c3.7-3,6.9-5.5,8.6-7.4l-4.4,20.6c-1.9,2-3.2-0.8-4.4-4.9
						c0,1.5,0,3,0,4.1c-4.9,6.1-6.9,1.2-8.3-5.1c2.1-1.9,4.3-3.8,6.4-5.6c-1.8-6.2-4-12.3-7.9-12.6c0.2,1.5-0.2,4.2-0.9,7
						c-0.5-1.6-1.1-2.8-1.9-2.4c-0.9,0.4-0.4,3-0.1,6.7l-8.4,1.8l2.2,2.1l-7,11.9c-2.3,3.9-4.7,8-7,12.1c-0.2,10.7,0.9,21,1.4,32.5
						c0.3,5.7,0.5,11.8,0.4,18.3c0,6.5-0.3,13.5-0.8,21.3c-2-4.2-4-5-6.3-4.9c-2.3,0.1-4.9,1.2-7.9,0.5c3.9-4,4.4-10.2,4.8-17.6
						c0.4-7.4,0.7-16,3.9-23.7c-3.3,8.1-5.5,5.5-5.8,3c-1,10.2-1.7,20.6-1.7,30.9c-4.8-1.7-5.1,5.6-8.2,13.7
						c5.4-2.4,6.1,3.5,6.4,11.8c0.2,4.2,0.2,8.9,0.8,13.5c0.2,2.3,0.6,4.6,1,6.6c0.5,2.1,1.1,4,1.7,5.6c-1.6,0.7-3.4,0.4-4.9-2.2
						c-0.4-0.7-0.8-1.5-1.1-2.5c-0.3-1-0.6-2.1-0.9-3.5c-0.3-1.3-0.4-2.8-0.5-4.5c-0.1-1.7-0.1-3.6,0-5.6c-0.5,1.1-0.8,2.2-1.1,3.3
						c-0.2,1.1-0.4,2.1-0.4,3.1c-0.1,1-0.1,1.9,0.1,2.9c0.1,0.9,0.3,1.8,0.6,2.7c0.2,0.9,0.5,1.7,0.9,2.5c0.4,0.8,0.8,1.6,1.2,2.3
						c0.4,0.7,0.9,1.5,1.4,2.2c0.5,0.7,1,1.4,1.6,2.1c2.1,2.7,4.4,5.2,6.2,8.2c1,1.5,1.6,3.1,2.4,5c0.4,0.9,0.7,1.9,0.9,3
						c0.3,1.1,0.6,2.2,0.8,3.5c-0.5-1-1-1.8-1.4-2.6c-0.4-0.8-0.7-1.5-1-2c-0.6-1.2-1.3-2-2.4-2.5c0.9,1,1.7,2.3,2.6,3.7
						c0.9,1.4,1.9,2.9,2.9,4.5c1.1,1.6,2.2,3.2,3.2,4.9c1.2,1.6,2.3,3.1,3.4,4.5c4.4,5.6,8.4,9.3,4.8,8.7c-0.7-0.4-1.3-0.9-2-1.5
						l-1.9-1.5c2.9,2.8,6.7,5.5,11.1,7.9c2.2,1.1,4.2,2.1,6.4,3c2.2,0.9,4.4,1.6,6.6,2.3c4.4,1.3,8.9,2.2,13.3,2.9
						c4.4,0.6,8.7,1,12.8,1.1c8.2,0.3,15.4-0.3,20.9-1.4c5.5-1.1,9.1-2.8,10-4.9c0.2,1.1-3.2,10.2-4.7,11.9
						c7.2-4.6,14.1-9.5,20.9-14.3c6.8-4.9,13.5-9.8,20.4-14.6c-1.8,3.7,0.8,9.8,1.4,15.6c0.3,2.9,0.1,5.7-1.2,8
						c-1.4,2.3-4,4.2-8.7,5.3c2.7,0.5,5.7,1,9.3,1.1c1.8,0.1,3.8,0,5.9-0.2c1.1-0.1,2.1-0.2,3.3-0.4c0.5-0.1,1.1-0.2,1.7-0.3
						c0.3-0.1,0.6-0.1,0.9-0.2c0.4-0.1,0.7-0.1,1.1-0.2c-0.4-0.2-1-0.5-1.4-0.8c-0.4-0.4-0.8-0.9-1.2-1.4c-0.8-1.1-1.5-2.4-2-3.7
						c-1-2.6-1.1-5.2,1.3-5.4c3,2.2,5.5,3.7,7.2,4.7c1.8,1,3.1,1.6,4.5,2.1c2.8,1.1,6,2.1,14.7,5.9c-5.7-1.8,1.2-12.9,10-12.3
						c-1.4,1.7,0.5,11.3-2.9,12.4c7.7-3.5,15.2-7.2,22.7-11c-5.6,2.1-1,9.6,4.3,12.6c-1.2-1.1,3.7-1.1,9.8-1.2
						c6.1-0.1,13.3-0.3,16.2-1.1c-3.2-0.6-6.6-1.3-9.9-1.9c13,0,18.8-4.7,24.5-9.3c5.7-4.6,11.3-9.5,23.6-10.2
						c-1.4,1.3-2.9,5-2.6,8.4c0.4,3.4,2.6,6.6,8.6,6.9c2.6-3,8.2-10.3,16.5-17.1c1-0.8,2.1-1.7,3.2-2.5c1.1-0.8,2.3-1.6,3.5-2.4
						c1.2-0.8,2.4-1.5,3.7-2.2c1.3-0.7,2.6-1.3,4-1.9c1.4-0.6,2.7-1.2,4.1-1.7c1.4-0.5,2.9-0.9,4.3-1.2c2.9-0.8,5.9-1.1,9-1.2
						c1.3,1.3,2.6,2.7,3.9,4.1c6.2,0,12.3,0.3,18.4,0.9c-6.6,2.5-18.7,6.1-29.8,11.3c-11.2,5-21.7,11.2-29,14.9
						c4.3,1.2,4.9,2.3,6,2.8c1.1,0.6,2.7,0.8,8.8,1c1,0.8,1.1,1.5,0.6,2.1c-0.5,0.6-1.6,1-2.9,1.3c-1.3,0.4-2.9,0.6-4.3,0.8
						c-1.5,0.2-2.8,0.4-3.7,0.4c9.5,0.7,18.5,1.9,26.8,4.2c0-1.7,1.3-2.7,3.3-3.4c1-0.4,2.2-0.5,3.5-0.6c0.6-0.1,1.3-0.1,2-0.2
						c0.7,0,1.4,0,2.1,0c5.6-0.1,11.4,0.4,11.8-2.4c-5.5-0.6-10.9-1-16-1c-1.3,0-2.6,0-3.8,0.1l-1.9,0.1c-0.6,0-1.3,0.1-1.9,0.1
						l-3.8,0.3c-1.3,0.1-2.6,0.3-3.8,0.4c-0.1-1.7,1-3.6,3.2-5.5c1.1-1,2.4-1.8,4-2.6c1.6-0.8,3.4-1.6,5.4-2.1c1-0.3,2-0.5,3.1-0.8
						c1.1-0.2,2.2-0.3,3.4-0.5c2.3-0.3,4.8-0.2,7.4-0.1c5.1,0.4,10.6,1.6,15.6,3.9c2.2,2.2,0.1,4.6-2.5,6.8
						c-2.6,2.2-5.7,4.1-5.8,5.2c0.8-0.3,2.5-0.3,4.6,0c2.1,0.3,4.5,0.8,6.9,1.5c2.4,0.7,4.7,1.5,6.5,2.3c1.8,0.8,3,1.6,3.3,2.2
						l-4.8-0.3c-1.6-0.1-3.2-0.1-4.8-0.2c1.2,0.9,2.4,1.5,3.7,2c1.2,0.5,2.5,0.9,3.8,1.1c2.6,0.5,5.2,0.8,7.9,1.1
						c5.3,0.8,10.8,2.4,15.1,8.9c2,1.4,3.8,5.3,5.4,8.3c1.6,3.1,3,5.4,4.5,4c-0.8-5.3,1.7-13.2,5.3-19.9c3.7-6.7,8.6-12.3,12.8-12.8
						c0.3,0.4,1.7,2,3.7,4.4c1.9,2.4,4.3,5.5,6.6,8.9c1.2,1.7,2.3,3.4,3.3,5.1c1,1.7,2,3.4,2.9,5c1.6,3.3,2.9,6,3.3,7.8
						c0.4,2.7-0.6,4-2.3,4.6c-1.7,0.7-4.1,0.7-6.5,0.8c-4.8,0.2-9.4,0.4-8.8,4.6c1.4-1.1,6.3,0.3,8,1.2c1.2,2.4-0.2,3-0.9,3.9
						c-0.3,0.5-0.5,1-0.1,1.9c0.4,0.9,1.3,2.1,3.2,4c0.8-0.4,1.6-0.4,2.4-0.2c0.8,0.3,1.5,0.8,2.3,1.4c0.7,0.6,1.4,1.4,2,2.2
						c0.6,0.8,1.1,1.6,1.5,2.2c0.8,1.3,1.3,2.2,1.3,1.7c0-0.3-0.1-0.9-0.4-2c-0.1-0.6-0.3-1.2-0.5-2.1c-0.2-0.8-0.5-1.7-0.9-2.8
						c2.1,1.8,3.3,3.5,4.3,4.9c0.5,0.7,0.9,1.4,1.2,2.2c0.3,0.7,0.6,1.4,0.9,2.2c0.5,1.5,1.2,2.9,1.8,4.8c0.7,1.8,1.7,3.9,2.9,6.7
						c0.6-1.3,2-1.8,4-1.5c1,0.1,2.1,0.5,3.2,1c1.2,0.5,2.3,1.2,3.6,2.1c1.2,0.9,2.5,1.9,3.7,3.1c1.2,1.2,2.3,2.5,3.4,3.9
						c1.1,1.4,2,2.9,2.8,4.4c0.4,0.8,0.8,1.5,1.1,2.3c0.2,0.4,0.3,0.8,0.5,1.1c0.1,0.4,0.2,0.8,0.4,1.1c-1.8-0.4-3.7,2.6-4.6,3.9
						c0.1,0.7,0.1,1.5,0.2,2.2c0,0.7,0,1.5,0,2.2c0,1.4,0,2.8,0,4.1c0,0.7-0.1,1.3-0.1,2c-0.1,0.7-0.1,1.3-0.2,1.9
						c-0.1,1.3-0.3,2.5-0.4,3.7c-0.2,1.2-0.5,2.4-0.7,3.5c-0.1,0.6-0.2,1.1-0.4,1.7c-0.2,0.6-0.3,1.1-0.5,1.7
						c-0.3,1.1-0.6,2.2-0.9,3.3c-0.4,1.1-0.8,2.1-1.1,3.1c-0.7,2.1-1.7,4.1-2.5,6.1c-0.4,1-1,2-1.5,3c-0.5,1-1,2-1.5,3
						c-0.5,1-1.1,2-1.7,3.1c-0.6,1-1.2,2.1-1.8,3.1c-0.3,0.5-0.6,1.1-0.9,1.6c-0.3,0.5-0.7,1.1-1,1.6c-0.7,1.1-1.3,2.2-2.1,3.3
						c-1.3,0.4-3.7,2.5-5.9,3.6c-2.2,1.2-4,1.6-3.9-1c-0.8,3.1-0.7,6.8-5.1,11.8c-6.5,2.7-4.1-0.2-1.7-3.4c1.2-1.6,2.4-3.3,2.5-4.5
						c0.1-1.2-0.7-1.7-3.6-1.1c0.6,0.8,0.5,2.2,0,4c-0.3,0.9-0.7,1.9-1.3,2.9c-0.5,1-1.1,2.2-1.9,3.3c-2.8,4.7-6.9,9.8-9.7,13.9
						c3.1,1.4,7.6-2.2,11.6-7.3c1-1.3,2-2.6,2.9-4c0.9-1.4,1.8-2.9,2.6-4.3c0.8-1.4,1.5-2.8,2.1-4.1c0.6-1.3,1.2-2.6,1.7-3.7
						c1.7,1.3,2.7,3.4,3.1,6.3c0.2,1.4,0.2,3,0,4.7c-0.1,0.9-0.2,1.8-0.4,2.7c-0.2,0.9-0.4,1.9-0.7,2.9c-0.3,1-0.6,2-1,3.1
						c-0.4,1-0.8,2.1-1.3,3.2c-0.9,2.2-2.2,4.5-3.5,6.8c-2.7,4.6-6.2,9.4-10.4,14.1c-3.5,3.5-5.8,5.3-7.5,6c-1.6,0.8-2.5,0.5-3,0
						c-1-1.1-0.5-3.5-1.4-2c-7.4,5.2-12.1,9.5-15.4,13.4c-3.3,3.9-5.3,7.3-7.1,10.6c-1.9,3.2-3.6,6.2-6.6,9.1
						c-2.9,2.9-7.1,5.7-13.3,8.7c-12.6,3-7-8.1-11.5-9.5c5.3-5.5,10.6-8.3,15.5-10.5c4.9-2.2,9.4-3.8,13.6-6.9l-11.9,5.3
						c2.9-4.3,10.5-11.3,15.9-13.3c-2.7,0.4-7.1,2.8-12.6,6.2c-5.5,3.4-12.1,8-19,13.2c-1.7,1.3-3.4,2.6-5.2,3.9
						c-1.7,1.3-3.5,2.7-5.3,3.9c-3.6,2.6-7.2,5.1-10.8,7.5c-7.2,4.7-14.4,8.7-20.7,11.5c-3,4.1-9.1,10.2-4.6,9.9l6.9-5.3
						c4.5-0.4,1.9,3.1-0.5,6.1c-2.5,3-4.8,5.6,0.4,3.5c-8.2,8.9-16.7,19.8-31.6,26.3l-5.9-3.5c1.3,1.3,10.8-2.6,13.7-6.6
						c-2.1,3-8.5,4.5-14.5,6.7c-3,1.1-6,2.4-8.2,4.1c-1.1,0.8-2.1,1.8-2.8,2.8c-0.7,1.1-1.2,2.3-1.3,3.6c3.7-0.9,7.7-1.8,11.5-2.7
						c-1,1.1-2,2.3-2.9,3.5c-1,1.2-2,2.5-2.9,3.8c-1.8,2.6-3.7,5.1-5.7,7.7c-1.9,2.7-4,5.2-6.3,7.5c-2.2,2.4-4.7,4.6-7.6,6.4
						c4.3,0.3,4.7-0.3,5.6-1.1c0.4-0.4,1-0.8,2.1-1.2c1.2-0.4,2.9-0.7,5.8-0.7c-2.9-0.5-2.8-2-1.1-4c0.8-1,2-2.1,3.4-3.2
						c0.3-0.3,0.7-0.6,1.1-0.9c0.4-0.3,0.8-0.5,1.1-0.8c0.8-0.5,1.6-1.1,2.3-1.6c1.6-1.1,3.1-2.2,4.4-3.2c1.4-1,2.6-2,3.3-2.8
						c1.4-1.6,0.9-2.7-3.2-2.7c13,1.2,16.7-6.7,32.1-8.1c-1.4-1.5-6.2-0.7,4.6-6.3c0.2-0.8,0.9-2.1,1.3-2.9c0.3-0.2,0.5-0.2,0.8-0.3
						c-0.2,0.1-0.4,0.1-0.7,0.2c0.3-0.5,0.3-0.6-0.3,0.1c-2.9,0.8-5.5,1.2-6.9,0.7c1.3-3.6,6.1-7.9,11.1-12.1
						c5-4.2,10.2-8.2,12.3-11.1c6.7-3.3-1.3,3.6,3.3,3.2c2.1-2.8,4.2-5.7,6.3-8.6c1.7,1.6,6.8,0.3,9.9,0.1c3.1-0.3,4.2,0.8-2.3,6.9
						c4.4-3,8.8-6.1,13.2-9.3c2.3-0.9,4.7-2.1,7.1-3.5c1.2-0.7,2.4-1.4,3.6-2.1c1-0.6,2-1.2,2.9-1.8c3.9-2.6,7.5-5.5,9.9-8.4
						c6.1-3.2,11.8-14.5,8.7-8c6-5.4,12.1-10.8,18.2-16.6l0.9,0.8c10.1-7.2,19.2-16.7,28.6-27c4.8-5.2,9.7-10.5,14.6-15.9
						c5.1-5.5,10.5-11.2,16.5-17.4c1.1-2.2,1.9-4.6,2.9-7.1c0.5-1.2,0.9-2.5,1.4-3.8c0.5-1.3,1-2.6,1.5-4c1-2.8,2.1-5.8,3.1-9.2
						c0.3-0.8,0.6-1.7,0.9-2.6c0.3-0.9,0.5-1.8,0.8-2.7c0.5-1.9,1.2-3.8,1.7-5.9c1.5-0.8,3-1.7,4.4-2.7c0.2-1.7,0.3-3.6,0.6-5.7
						c0.1-1,0.3-2.1,0.4-3.2c0.1-1.1,0.2-2.2,0.3-3.3c0.2-2.3,0.5-4.6,0.7-6.9c0.1-2.4,0.2-4.7,0.2-7.1c0.1-1.2,0-2.3-0.1-3.4
						c-0.1-1.1-0.1-2.2-0.2-3.3c-0.2-2.1-0.4-4.1-0.8-5.9c-0.8-3.5-1.7-6.2-3.1-7.3c0.8-2.1,1.1-4.6,1.1-7.6c-0.1-3-0.8-6.2-1.7-9.8
						c-0.6-1.7-1.2-3.5-1.9-5.3c-0.4-0.9-0.7-1.8-1.1-2.8c-0.4-0.9-0.9-1.8-1.3-2.7c-0.9-1.8-1.9-3.7-2.9-5.5
						c-1.1-1.8-2.2-3.6-3.4-5.4c-4.8-7-10.3-13.6-15.7-19.2c-0.7-0.7-1.3-1.4-2-2.1c-0.6-0.7-1.3-1.3-1.9-2
						c-1.3-1.3-2.5-2.5-3.7-3.7c-2.4-2.4-4.5-4.5-6.3-6.5l-4,3.2c-2.6-2.4-5.2-4.8-8-6.9c-1.4-1.1-2.8-2.1-4.3-3.2c-1.5-1-3-2-4.5-3
						c-6.1-3.9-12.9-7.5-20.6-11l-1.5,4.4c-7-2.2-14.5-7.4-23.1-12.9c-8.6-5.5-18.5-11.4-29.6-14.8c1-0.6,2.9-0.3,4.9,0.5
						c2,0.8,4.2,2,6,3.2c-5.5-4.8-12.1-7.9-19.2-9.8c-1.8-0.5-3.6-0.9-5.4-1.2c-1.9-0.3-3.7-0.6-5.6-0.8c-1.9-0.2-3.8-0.3-5.8-0.4
						c-1.9,0-3.8-0.1-5.6-0.1c-1.9,0-3.7,0-5.6,0.1c-1.8,0.1-3.7,0.1-5.5,0.2c-3.6,0.2-7.1,0.4-10.5,0.5c-6.8,0.2-13.2,0-19.4-1.6
						c-6,1.9-10.2,1.6-14.5,0.8c0.5-0.1,1-0.2,1.4-0.3c-0.6,0-1.5,0-2.4,0.1c-2.6-0.6-5.4-1.2-8.3-1.7c2.5,0.9,4.9,1.6,7,1.8
						c-4.5,0.4-11.2,1.6-17.5,3.4l-3.2-4.5c-0.5,0.1-0.9,0.1-1.5,0.3c-3.2-0.6-4.4,0.1-4.3,1.3c0.1,1.2,1.4,3.1,3.2,4.7
						c-3.1,1.1-5.9,2.3-8.1,3.7c-2.8-3.7-6.9-2.6-11.1-1.8c-4.2,0.9-8.6,1.6-12.1-2.4c-2,2.1-9.7,3.1-17.4,4.3
						c-7.7,1.3-15.5,2.9-17.3,7.1c-0.2-1.1-2-1.7,1.4-1.7c-7-1.2-14-2.5-20.5-0.5l-2.6-6.3c-1.3,0.6-2.6,1.2-4,1.8
						c-1.5,0.6-3.1,1.2-4.5,1.9c-2.9,1.3-5.6,2.6-8.3,4c-4.9-1.9-8.3-3.3-9.4-4.9c-1-1.6,0.3-3.3,5.2-5.7c-5.9,1.9-9.9,3-13,3.8
						c-3.1,0.8-5.3,1.1-7.4,1.5c-4.2,0.7-7.8,1.5-17.4,4.9l1-3.9c-3.4,0-7.7,1.3-11.8,2c-4,0.7-7.8,1-9.6-0.8
						c-3.5-2.2-9.7-3.8-16.8-5.9c-3.5-1.1-7.3-2.2-10.7-3.7c-0.4-0.2-0.9-0.4-1.3-0.6c-0.4-0.2-0.8-0.4-1.2-0.6
						c-0.8-0.4-1.4-0.8-2.1-1.2l-0.5-0.3l-0.5-0.3c-0.3-0.2-0.6-0.4-1-0.7c-0.3-0.2-0.6-0.5-0.9-0.8c-0.3-0.3-0.6-0.5-0.9-0.8
						c-0.3-0.3-0.5-0.6-0.8-0.9c-0.3-0.3-0.5-0.6-0.8-0.9l-0.7-1l-0.6-1c-0.2-0.4-0.5-0.7-0.7-1l-0.6-1.2c-0.5-0.8-0.8-1.7-1.2-2.6
						c-1.5-3.7-2.4-8-2.7-12.6c-0.7-9.2,1-19.2,4-27.7c-3.1,1.3-4.2,1-4.2-0.3c0-1.3,1.1-3.6,2.4-6c1.3-2.5,2.8-5.2,3.4-7.4
						c0.7-2.3,0.4-4.2-1.7-5.1c3.2-1.5,6-6,6.8,0.3c0.9-9.4,4.2-16,6.6-22c2.5-6,4.3-11.5,3.1-19.2c3.4-1.1,2.3,5.4,4.6,4
						c0-1.7-0.1-6.7,2.2-8c2.3-1.3,1.1,3.5,1.2,6.9c3.3-9.4,3.4-15.7,1.6-19.9c-1.8-4.2-5.3-6.6-8.7-8.7c7.3-8.5,8.7-13.5,6.7-22.5
						c3.8-2.5,8.5-7.1,4.7,5.2c0.8-1.6,2.3-5,4.3-9.1c1.9-4.1,4.2-8.9,6.1-13.6c4-9.4,6.9-18.3,4.1-19.9c2.4-1.4,4.4-9.1,4.4-11.1
						c6.9-14.6,7.9-15.7,14.1-30.2c-0.9,1.2-1.9,2.3-2.8,3.5c-2.2-4.5-1.1-7.6,1.1-11.2c1.1-1.8,2.4-3.6,3.9-5.8
						c1.4-2.1,2.9-4.5,4.1-7.5l0.5,0.7c2.3-2.9,4-5.3,5.5-7.3c1.4-1.9,2.4-3.5,3.2-4.8c1.5-2.6,2-4.1,2.5-5.6
						c0.5-1.5,1.1-2.9,2.7-5.4c0.8-1.2,1.9-2.7,3.4-4.5c1.5-1.8,3.5-4,6-6.6l-4.9-1.2c-1.8-1.9-1.6-4-0.1-6.4
						c0.7-1.2,1.8-2.4,3.1-3.7c1.3-1.3,2.8-2.6,4.4-3.9c3.3-2.7,6.8-5.7,10.1-8.7c1.7-1.5,3.2-3.2,4.5-4.9c0.7-0.9,1.3-1.8,1.8-2.7
						c0.6-0.9,1.1-1.8,1.6-2.7l-2.9,1.4c-1,0.5-1.9,1-2.9,1.6c0.6-2.4,2.7-4.2,5.4-5.7c2.8-1.5,6.1-2.8,9.7-3.8
						c3.6-1,7.3-1.9,10.5-2.8c3.2-1,6-1.9,7.7-3.3c2-0.8-1,3.2-2.3,5.6c5-3.1,7.3-5.1,8.2-6.5c0.9-1.4,0.3-2.2-0.6-3.1
						c-1.8-1.8-4.8-3.6,0.8-10.3c2.3,0.1,3.1,2.3,4.4,3.6c0.6,0.6,1.4,1,2.6,0.8c1.2-0.2,2.7-1.1,4.9-3c3-1,7.2-8.7,13-16.8
						c5.8-8.2,13.4-16.6,21.7-19.2c-4.4,0.2-8.8,0.4-3.6-6.3c2.4-2.1,5.6-4.1,9.2-5.9c3.7-1.8,7.6-3.6,11.5-5.5
						c7.7-3.8,14.8-8.2,17-15c1.7-0.4,2.6-0.2,3.1,0.3c6.7-7.5,23.9-21.7,26.1-28.9c1.1,0.5,2.2,0.8,3.3,0.8c0.6,0,1.2,0,1.7,0
						c0.5,0,1.1-0.1,1.6-0.2c2.2-0.4,4.6-1.5,7.2-3c5.1-3,10.8-7.9,16.2-12.7c10.9-9.6,20.6-19,24.8-12.7c8.5-6.2,16.9-12.6,25-19.5
						l0.3,1.7c8.4-6,13.3-11.3,16.4-15.8c3.1-4.6,4.5-8.5,5.7-12.4c4.1-2.8,2.7,0.8,3,1.6c5.9-5.1,10.3-9.6,13.7-13.7
						c3.4-4.1,5.8-7.9,7.7-11.9c1.8-4,3.2-8.2,4-13.3c0.8-5.1,1.2-11.3,0-18.9c1.7-0.9,3.4-1.9,5.1-2.9c-0.6-2.2-0.4-6.8-1.1-13.1
						c-0.6-6.3-2.5-14.3-6.3-22.2c-1.9-3.8-4.2-7.8-6.9-11.3c-1.3-1.9-2.8-3.5-4.2-5.2c-1.5-1.6-3.1-3.3-4.8-4.8
						c-6.7-6.1-14.6-10.9-22.4-13.4c0.5-0.3,1.6-0.9,4.3-0.2c-8.9-3.4-17.9-7.5-27-11.2c-9.1-3.8-18.3-7.3-27-9.8
						c-8.6-2.6-16.7-4.1-23.4-4c-6.7,0.1-12,1.9-15.3,6.2c-7.2,1-14.4,2.2-21.4,3.5c6.8,0.5,9.9,1.4,11,2.2c1,0.9,0,1.9-1.6,2.9
						c-3.1,2-8.1,4.2-2.6,5.9c-10.5,0.7-27.2-6.1-14.2-6.8l2,0.9c2.5-4.7-5.9-5.7-14.7-6.3c-8.9-0.6-18.3-0.7-17.9-3.9
						c-26.5,0.1-52.4-1-77.3-3.3c-6.2-0.6-12.4-1.2-18.5-1.9l-4.6-0.6c-1.5-0.2-2.7-0.4-4.1-0.6c-2.7-0.4-5.3-0.9-7.9-1.5
						c-10.3-2.4-19.7-6-26.9-10.8c-0.1,1.4-0.1,2.8-0.1,4.2c0,1.4,0,2.9,0.2,4.3c-4.1-2.4-7.8-5.1-11-8.2c-0.7-1.8-0.4-3.6,0.7-4.1
						c0.6-0.3,1.3-0.2,2.3,0.2c1.1,0.4,2.3,1.3,4,2.6c-0.7-3-3.6-4.5-6.7-5.6c-3.2-1.1-6.5-2-7.2-1.7c-0.2-0.5-0.4-1-0.6-1.4
						c-0.2-0.4-0.3-0.9-0.4-1.3c-0.2-0.8-0.3-1.5-0.4-2c0-1.1,0.2-1.8,0.5-2.1c0.4-0.3,0.9-0.3,1.5-0.1c0.6,0.2,1.3,0.6,2.1,1
						c0.8,0.4,1.5,0.9,2.2,1.3c0.7,0.4,1.4,0.8,1.9,1.1c1.1,0.5,1.7,0.6,1-0.3c-0.3-0.4-0.6-0.8-0.9-1.2c-0.3-0.4-0.7-0.8-0.9-1.2
						c-0.5-0.9-1.2-1.6-1.7-2.6c-0.1,0.5-0.1,1.1-0.1,1.6c-1.3-0.8-2.3-1.4-3.4-2c-1-0.6-1.9-1.2-2.9-2.1c-1.7-1.7-3.4-4.3-4-10.1
						c0.2-1.9,0.5-3.1,1-3.8c0.5-0.8,1-1.1,1.5-1.3c1-0.4,1.8-0.3,1.9-1.7c0.3,0,0.4-0.2,0.5-0.9c0.1-0.7,0-1.7-0.2-3.5
						c0.4-5.6,1.5-11.5,3.1-17.4c-1.2,1-2.4,2-3.6,3c-1.2,1-2.3,2.1-3.5,3.2c-1.5-8.8,4.5-17.8-4.3-10.4c1.6-1.4,3.2-3.5,4.8-6.1
						c0.8-1.3,1.7-2.8,2.5-4.4c0.8-1.6,1.6-3.3,2.5-5c0.9-1.7,1.8-3.6,2.6-5.5c0.9-1.9,1.9-3.8,2.8-5.8c0.5-1,0.9-2,1.4-3
						c0.5-1,1-2,1.5-3c1-2,2-4.1,3.1-6.1c1.1-2,2.1-4,3.2-6c1-2,2.2-3.9,3.3-5.7c2.1-3.8,4.3-7.2,6.3-10.2c2-3,3.9-5.6,5.5-7.7
						c1.6-2,3-3.4,3.9-4c4.2-12.8,12.6-22.9,23.8-34.3c-1.8,1.1-4.3,1-5.1-0.6c-0.8-1.6,0-4.7,5.2-9.6c3.1,6.5,8.5,2.8,15.1-2.5
						c3.3-2.7,6.9-5.7,10.6-8.2c3.7-2.4,7.5-4.3,11.2-4.5c-5.8,1.2,1-6,7.3-12.8c6.2-6.9,11.9-13.5,2.9-11.4
						c9.4-7.2,3.9,3.2,12.6-0.6c8.6-11.4,20.6-21.3,33.6-31.7c12.9-10.5,26.9-21.5,38.6-35.7c-0.9-1.6-7,1.1-3.7-6.4
						c3.2-1.4,6.4-2.8,9.6-4.3l1.2-0.6l1.2-0.5l2.3-1l4.6-1.9c1.8-2.8,0.9-5.6,1.2-8.4c0.3-2.7,1.6-5.5,8-7.9
						c-2.3,0.2-5.7,0.6-3-3.1c13-10.7,25.4-22.1,37.9-33.7c12.5-11.6,25-23.5,37.9-35.2c12.9-11.7,26.2-23.1,40.2-33.8
						c3.5-2.7,7-5.3,10.6-7.9l5.5-3.9c1.8-1.3,3.7-2.6,5.5-3.9c7.4-5,14.8-9.7,22.3-13.5c-4.5,1.6-5.7,1.4-5.1,0.2
						c0.6-1.2,2.9-3.4,5.5-5.6c-3.9,2.2-2.7-3.4-4.9-4.7c8.6-4.3,17.1-8,25.4-10.6c0.1-2,1.6-4,3.9-5.7c0.6-0.4,1.2-0.9,1.7-1.2
						c0.3-0.2,0.6-0.4,0.9-0.5c0.3-0.2,0.6-0.4,1-0.5c1.3-0.7,2.9-1.4,4.5-2.1c3.2-1.4,6.8-2.9,9.6-4.6c1.4-0.9,2.6-1.8,3.5-2.7
						c0.8-0.9,1.3-1.8,1.4-2.8c-3,2-6,3.7-8.8,5.4c4.5-6.1-1.5-7.9-8.3-9.8c-3.4-1-7.2-1.8-10.4-2.9c-3.2-1.1-5.8-2.3-6.5-4.7
						c-0.7,0.9-1.3,1.8-2,2.5c-0.7,0.8-1.5,1.5-2.4,2.1c-1.7,1.3-3.7,2.4-5.8,3.4c-4.3,2-9.3,3.8-14.4,6
						c-10.2,4.4-20.6,10.6-25,22.6c-5,1.9,1.1-5.1-2.4-5c-0.8,3.4-2.3,6.5-4.9,9.5c-1.3,1.5-2.9,3-4.9,4.6c-1.9,1.5-4.2,3.1-6.9,4.8
						l0.4-1.7c-13.2,12-23.4,19.6-34.4,27.4c-11,7.8-22.7,15.5-38.9,28l5.4,1.5c-7,5.3-9.3,5.5-13.2,7.4c-1.3,6,3.3,2,8.1-2.1
						c4.8-4,9.8-8,9-2c-7.5,0.2-19.1,10.5-30.2,20.6c-11.1,10.1-21.6,20.4-28.4,19.4c-4.8,4.9-3.1,5.2-1.4,5.4
						c1.7,0.2,3.4,0.4-1.4,5.4l-4.7,0.6c0.1,1.7,0.3,3.4,0.4,5.1c-6.5,6.2-12.3,7.1-14.4,5.7c1.6-1.5,3.7-5.1,5.1-7
						c-2.6,1.6-5.3,3.9-7.8,6.8c-1.3,1.4-2.5,2.9-3.7,4.4c-0.6,0.8-1.2,1.5-1.8,2.3c-0.3,0.4-0.6,0.7-0.8,1.1
						c-0.2,0.3-0.5,0.7-0.7,1c-3.8,5.3-7.1,10.2-8.7,11.1l4.7-3.8c1.6-1.3,3.1-2.6,4.6-3.9c-2.5,3.4-5.3,6.8-8.2,10.3
						c-3,3.4-6.1,6.8-9.4,10.2c-6.6,6.8-13.6,13.6-20.7,20.4c-14.2,13.6-28.6,27.3-39.5,41.5l3.5-0.2c-4.2,5.3-7.4,8.8-10.2,11.4
						c-2.7,2.6-5,4.2-7.4,5.9c-2.4,1.7-4.9,3.3-8,6c-3.2,2.7-7,6.4-11.9,12l0.4-1.2c-1.3,2.9-3.2,6-5.4,9.1
						c-2.2,3.1-4.9,6.2-7.7,9.2c1.6-3.7-1.7-1.9-4.9-0.3c-3.2,1.6-6.2,2.9-3.9-1.8c-2.1,3.2-3.8,5.8-5.1,8c-1.3,2.2-2.4,3.9-3.1,5.3
						c-1.5,2.9-2.1,4.4-2.3,5.8c-0.3,1.4-0.2,2.6-0.5,4.7c-0.2,2.2-0.8,5.3-2.2,10.4c-1.9,0.4-3.8,0.9-5.7,1.4
						c-0.7,3.8-0.8,5.9-1.6,8.9c-0.4,1.5-1,3.1-2,5.2c-0.5,1-1.1,2.2-1.8,3.5c-0.7,1.3-1.5,2.8-2.4,4.4c2-6.1-0.5-4.8-3-3.8
						c-2.5,1.1-5.1,2-3-5.2c-6.2,5.7-10.4,11.7-13.3,17.5c-1.4,2.9-2.7,5.7-3.6,8.4c-0.9,2.7-1.7,5.3-2.5,7.8c-0.7,2.4-1.3,4.8-2,7
						c-0.7,2.2-1.5,4.2-2.3,6.1c-0.9,1.9-1.9,3.7-3.3,5.3c-0.7,0.8-1.5,1.6-2.3,2.3c-0.8,0.8-1.7,1.5-2.7,2.2
						c1.2,4.5,2.8,5.1,4.4,3.6c1.6-1.4,3.1-4.9,4.8-8.6c0.8-1.8,1.6-3.7,2.2-5.5c0.8-1.7,1.4-3.3,2-4.5c1.1-2.4,1.7-3.4,1.3-1.3
						c2.9-2.6,3.4,1.1,2.7,6.3c-0.7,5.3-2.4,12.3-4.3,17c-0.4,1.2-1,2.3-1.7,3.4c-0.7,1.1-1.5,2.1-2.4,3.2c-0.9,1.1-2,2.2-3.1,3.4
						c-1.1,1.2-2.2,2.5-3.3,3.9c-1.2,1.4-2.3,3.1-3.3,4.9c-0.5,0.9-1.1,1.9-1.6,2.9c-0.5,1.1-0.9,2.2-1.4,3.4
						c-1.8,4.7-3,10.8-2.8,18.3c-0.1-3-0.8-3.2-0.7-6.2c-1.5,5.6-0.2,11.4,1.3,17.3c0.4,1.5,0.8,3,1.2,4.5c0.5,1.5,0.9,3.1,1.2,4.7
						c0.8,3.2,1.4,6.7,1.9,10.6c2.2,1.4,3.9,3.1,5.2,5c1.3,1.8,2.5,3.7,3.5,5.5c1.2,1.7,2.3,3.2,3.6,4c1.4,0.8,2.9,1.1,4.8,0.3
						c-3.1-3.4-5.8-7.3-8.3-11.3c-1.1-2.1-2.3-4.1-3.3-6.2c-0.5-1.1-1-2.1-1.4-3.2l-1.3-3.3c0.8,1.8,1.7,3.6,2.9,5.3
						c0.6,0.8,1.1,1.7,1.7,2.5c0.6,0.8,1.3,1.6,1.9,2.4c0.7,0.8,1.3,1.6,2,2.3c0.7,0.7,1.5,1.5,2.2,2.2c0.4,0.4,0.7,0.7,1.1,1.1
						c0.4,0.4,0.8,0.7,1.2,1.1c0.8,0.7,1.6,1.4,2.4,2.2c3.3,2.8,6.7,5.7,10.4,8.8c3.7,3.1,7.6,6.5,12,10.5c-1.2,0.3-3.6-0.2-6.3-1
						c-1.3-0.4-2.8-1-4.1-1.6c-1.4-0.6-2.7-1.3-3.9-1.9c1,1.7,2.3,3,3.8,4.1c0.7,0.6,1.5,1.1,2.2,1.6c0.8,0.5,1.6,0.9,2.4,1.3
						c0.8,0.4,1.6,0.8,2.4,1.3c0.8,0.4,1.6,0.8,2.4,1.3c1.5,1,3.1,2,4.5,3.4c-1.4,1.5-4,1.5-7.4,0.2c-3.4-1.2-7.5-3.8-11.7-7.2
						c-4.2-3.3-8.5-7.6-12.3-11.9c-0.9-1.1-2-2.1-2.9-3.2c-0.9-1.1-1.8-2.2-2.7-3.2c-0.9-1-1.7-2.1-2.6-3.1c-0.9-1-1.8-1.9-2.6-2.8
						c0.1,1.2,0.6,2.6,1.3,4c0.4,0.7,0.8,1.5,1.2,2.2c0.4,0.7,1,1.5,1.5,2.2c1.1,1.5,2.3,2.9,3.6,4.3c1.3,1.3,2.5,2.6,3.8,3.7
						c1.2,1.1,2.3,2.1,3.2,3c0.9,0.8,1.6,1.6,1.9,2.1c0.6,1.2-0.1,1.9-3.4,1.7c2.2,0.3,4.2,0.8,6,1.5c1.9,0.7,3.6,1.6,5.3,2.5
						c0.9,0.5,1.7,1,2.5,1.6c0.8,0.6,1.7,1.1,2.6,1.7c0.9,0.6,1.7,1.2,2.6,1.8c0.9,0.6,1.8,1.2,2.7,1.8c0.5,0.3,0.9,0.6,1.4,0.9
						c0.5,0.3,0.9,0.6,1.4,0.9c1,0.6,1.9,1.2,2.9,1.8c1,0.6,2,1.1,3.1,1.6c1.1,0.5,2.1,1,3.3,1.4c1.1,0.4,2.3,0.8,3.4,1.1
						c1.2,0.3,2.4,0.5,3.6,0.7c2.4,0.4,5,0.3,7.6,0c-0.8,1.4-1.7,2.8-2.5,4.2c1.6,0.1,4.2,0,7,0c1.4,0,2.9,0,4.3,0.1
						c1.5,0.1,2.9,0.2,4.3,0.5l-2.8,1.1l-2.8,1l-2.9,1c-1,0.3-2,0.6-3,0.9c2.2-0.1,4.2-0.1,6.3,0c2,0.2,4,0.4,5.9,0.8
						c3.8,0.8,7.5,1.8,11.3,2.9c1.7,0.5,3.5,1,5.2,1.5c1.7,0.5,3.3,0.9,5,1.2c3.3,0.6,6.7,0.9,10.1,0.4c-14.1-0.7-15.7-2.3-15.1-4.1
						c0.6-1.8,3.2-4-2.6-6.1c8.8-1,14.3-0.7,18.3,0.3c4,1,6.6,2.8,9.2,4.7c2.7,1.9,5.5,3.9,10,5.4c4.6,1.5,10.9,2.3,20.4,1.9
						c-5.2,0.6-19.5-3.2-11.3-5.2c7.3,1.1,16.8,3,21.3,5.5c25.1-0.9-3.8-4.9,6.9-7.8c8.5,5.8,12.3-2.3,23.2-4.1l0.1,4.8
						c14.1,1.6,16-0.8,17.5-3.3c1.5-2.4,2.7-4.8,15.4-2.7l-10.9,6.5l13.3-1.5l-2.8,5.4c7.2-1.9,11.8-2.5,16.4-2.4
						c4.5,0.1,9,1,15.7,2.2c-1.4-1.8-0.9-4,1.6-5.6c2.5-1.6,6.8-2.7,12.8-2.1c3.9,1.9,2.6,2.9,2.5,3.6c-0.1,0.3,0.2,0.6,1.4,0.9
						c1.3,0.3,3.6,0.5,7.7,1c-2.1,1.2-4.2,2.6-6.7,3.1c-2.5,0.5-5.2,0-8.6-2.6c-0.9,1.5-4,2.7-4.9,4.1c4.1,2,9.4,2.7,14.3,3.2
						c4.9,0.4,9.5,0.6,12.3,1.1c-1.1-0.3-2.2-0.6-3.3-1c-1.1-0.4-2-0.7-2.6-1.2c4-0.5,8-0.8,12-1.1c4-0.2,8-0.4,11.9-0.4
						c2.9,2.7-0.3,3.3-3.3,3.9c1.1,0.2,2.2,0.3,3.2,0.3c1.1,0,2.1,0,3.3,0c1.1,0,2.3,0.1,3.6,0.3c0.6,0.1,1.3,0.2,2,0.4
						c0.7,0.2,1.4,0.4,2.2,0.6c-3,3.1-4.1,6.7-12.9,5.8c6.7,0.6,13.3,1.6,19.5,3.3c0.1,1.1,1.7,3.2,2.5,5.1c0.5,0.9,0.8,1.8,0.8,2.5
						c0,0.7-0.2,1.1-0.8,1.1c0.8,0.9,1.7,1.6,2.6,2.3c0.5,0.3,1,0.6,1.5,1c0.5,0.3,1,0.6,1.6,0.9c0.6,0.3,1.1,0.6,1.7,0.9
						c0.6,0.3,1.2,0.6,1.8,0.9c0.6,0.3,1.2,0.7,1.8,1c0.6,0.3,1.2,0.7,1.8,1c2.3,1.4,4.4,2.9,5.7,4.6c1.3,1.7,1.9,3.5,1.4,5.2
						c0.4,0.1,0.8,0.3,1.2,0.7c0.2,0.2,0.4,0.4,0.6,0.7c0.2,0.3,0.3,0.6,0.5,1c-0.5,3.6-3,7.3-5.9,11.7c-3,4.5-6.5,9.8-10,17.9
						c-3.8,0.8-7.7,1.5-11.7,2.1c-2.1,2.6-2.2,3.7-1.4,4.3c0.8,0.5,2.6,0.4,4.2,0.4c1.6,0.1,3,0.3,3.2,1.7c0.1,1.4-1,3.9-5.1,8.5
						c-2.8,3.3-4.8,4.8-6.3,5.4c-1.5,0.6-2.4,0.2-3.1-0.5c-1.4-1.4-2.2-4.1-5.1-3c-2.1,4-5.1,9.8-9.8,15.1
						c-4.7,5.3-11,10.3-19.5,12.5C803,697.4,807.1,695.8,811,692.5z M653.8,811.9c0.6-0.8,1.2-2,1.9-3.2c0.7-1.2,1.6-2.4,2.4-3.5
						c1.8-2.3,3.7-4.1,5.8-3.9c0.1,3.6-0.9,5.4-2.7,6.8C659.4,809.3,656.8,810.2,653.8,811.9z M511.4,1077.7
						c-0.5-3.2,1.8-7,5.3-10.9C515.8,1070.3,514.2,1074,511.4,1077.7z M856.9,1509.9c0.1-0.2,0.1-0.3,0.1-0.4
						c3.6-1.6,4.8-2.1,4.4-1.9c-0.2,0.1-0.7,0.4-1.5,0.8C859.2,1508.8,858.1,1509.3,856.9,1509.9z M841,1519.4
						c-1.1,1.6-0.6,2.1,0.4,2.2c0.2-0.9,1.1-1.9,2.4-3.1c1.4-1.2,3.2-2.5,5.2-3.7C847.2,1514.5,844.8,1515.3,841,1519.4z M557,480.4
						c-0.5,0.9-0.8,1.8-1.2,2.7c-0.2-0.8-0.4-1.4-0.5-1.9c-0.1-0.5-0.1-1-0.2-1.3c0-0.7,0-1,0.2-1.1
						C555.6,478.7,556.3,479.6,557,480.4z"/>
					<path class="st0" d="M517.5,1043.9c1.2-0.7,2.1-0.6,3-0.6C520.3,1041.7,519.4,1041.3,517.5,1043.9z"/>
					<path class="st0" d="M867.3,623.2c0-0.1,0-0.1,0-0.2c-0.3-0.1-0.6-0.1-0.9-0.1L867.3,623.2z"/>
					<path class="st0" d="M904.4,1306.7c-0.4-0.7-0.8-1.3-1-1.9c-0.3-0.6-0.6-1.1-0.8-1.6c-0.4-1-0.6-1.8-0.8-2.6
						c-0.5,0.4-0.6,1-0.2,2C902,1303.6,902.9,1304.8,904.4,1306.7z"/>
					<path class="st0" d="M767.3,1577.4c2.7-2.3,5.5-4.7,8.3-7c-4.3,3.1-6.4,3.2-9,4C767.4,1575.2,770,1575.5,767.3,1577.4z"/>
					<path class="st0" d="M679.9,1619.1c-0.6,1.6-2.2,2.7-2.8,4.3l2,1.1C683.5,1619.1,685.4,1614.3,679.9,1619.1z"/>
					<path class="st0" d="M750.4,1569.7c-1.6-1.4-3.4-0.8-5.6,0.9c-2.2,1.6-4.7,4.2-7.3,7c0.3-0.3,0.6-0.6,1-0.9
						c1,2.9,2.7,2.7,4.7,1C745.4,1576,747.8,1572.8,750.4,1569.7z"/>
					<path class="st0" d="M736.3,1578.7c-1.6,1.7-3.4,3.2-5.2,4.7c0.4,1.1,1,0.8,1.9-0.3C733.8,1582,734.9,1580.3,736.3,1578.7z"/>
					<path class="st0" d="M823.5,1534.8c-3.8,1.3,0.8,5.7-1.9,5.5c-0.2,1.7,0.8,1.3,2.2,0c1.4-1.3,3.2-3.5,4.5-5.5
						c1.3-2,2.1-3.8,1.6-4.1C829.4,1530.3,827.5,1531.3,823.5,1534.8z"/>
					<path class="st0" d="M737.4,1562.8c1.8,0.7,3.5,1.5,5.3,2.2c0.3-1.9,0.6-3.9,1-5.8c-1.1,0.5-2.1,1.2-3.2,1.8L737.4,1562.8z"/>
					<path class="st0" d="M791,1531.7l-11.4,5.5c0.6,0.6-0.5,1.9-1.9,3.2C784.3,1536.5,792,1532.8,791,1531.7z"/>
					<path class="st0" d="M777.7,1540.4c-3.5,2.1-6.6,4.2-8.1,6.1C771.4,1545.3,775.3,1542.7,777.7,1540.4z"/>
					<path class="st0" d="M750.4,1551.5l3.7-1.2c2.5-1.5,5.1-3,7.6-4.5C757.9,1547.6,754.2,1549.5,750.4,1551.5z"/>
					<path class="st0" d="M901.6,1453.8c3.3-3.3,6.5-6.7,9.6-10.1c-0.1-1.1-1-1.2-2.3-0.6c-1.3,0.6-3,2-4.8,4
						c-0.9,1.5-2.2,3.2-3,4.5C900.5,1452.9,900.2,1453.8,901.6,1453.8z"/>
					<path class="st0" d="M860.2,1467.4c3.6-1.3,4.5-0.5,7.1-0.4l-3.3-5.3L860.2,1467.4z"/>
					<path class="st0" d="M890.9,1442.9c0-1.1,2.9-5.1,4.2-7.4c0.6-1.2,0.9-2,0.2-1.7c-0.7,0.2-2.2,1.4-5.3,4.1c0,1.1-2.3,4-3.4,5.8
						C885.4,1445.4,885.7,1446.2,890.9,1442.9z"/>
					<path class="st0" d="M901.4,1280.9l2.7,2.1l6.2-8.1C907.3,1276.8,904.3,1278.8,901.4,1280.9z"/>
					<path class="st0" d="M735.3,1261.2c8.2,0.4,8.9-1.2,9.5-2.8c0.3-0.8,0.6-1.5,1.7-2c1.1-0.5,3-0.6,6.6-0.1
						c1.7-1.3-1.2-1.7-4.1-2.1c-3-0.3-5.9-0.6-4.1-1.8C735.5,1255.9,730.2,1255,735.3,1261.2z"/>
					<path class="st0" d="M744.9,1252.5c1.5-0.5,3.1-1.2,4.7-2C746.9,1251.4,745.6,1252,744.9,1252.5z"/>
					<path class="st0" d="M968.7,42.3c3.3-0.6,7.1-1.4,11.3-2.6c-3,0.2-5.7,0.1-8.4-0.1C970.6,40.5,969.6,41.4,968.7,42.3z"/>
					<path class="st0" d="M986.3,25.3c1,0.6,2.1,1.2,3.2,1.8c1.1,0.6,2.2,1.1,3.3,1.6c1.4-3.4,2.7-7,3.5-10.6
						c-0.6,0.6-1.3,1.4-2.1,2.3c-0.8,0.8-1.7,1.6-2.7,2.4C989.6,24.2,987.7,25.3,986.3,25.3z"/>
					<path class="st0" d="M622.5,823.7l0.5,1.7c2.4-0.1,4.4-1.8,8.3-5.4L622.5,823.7z"/>
					<polygon class="st0" points="739.5,734.7 737.4,736.1 744.6,738.1 					"/>
					<path class="st0" d="M829.4,662.2c-3.3,2.5-6.3,6.7-9.9,9.2c3.4-3.3,7.2-4.4,9.6-5.3C831.4,665.3,832.2,664.6,829.4,662.2z"/>
				</g>
			</g>
		</g>
	</g>
</g>
</svg>
