<?xml version="1.0" encoding="utf-8"?>
<!-- Generator: Adobe Illustrator 26.5.0, SVG Export Plug-In . SVG Version: 6.00 Build 0)  -->
<svg version="1.1" id="Layer_1" xmlns="http://www.w3.org/2000/svg" xmlns:xlink="http://www.w3.org/1999/xlink" x="0px" y="0px"
	 viewBox="0 0 1440 1689" style="enable-background:new 0 0 1440 1689;" xml:space="preserve">
<style type="text/css">
	.st0{fill:#F38098;}
</style>
<g>
	<g>
		<g>
			<g>
				<g>
					<path class="st0" d="M519.6,1685c-0.3,3.8,3.9,2.3,4.6,2.8C523.2,1681.6,518.5,1685.1,519.6,1685z"/>
					<path class="st0" d="M519.3,1619.4l1.3,1.6l-0.6-5.3l-0.3-2.7l-0.2-2.7C519.3,1613.3,519.4,1616.4,519.3,1619.4z"/>
					<path class="st0" d="M544.5,1561.3c-2.3,0.4-4.1,2-5.6,4.2c-1.5,2.2-2.7,5.1-3.7,8.2c-2.1,6.2-3.8,13.2-7.2,17.9l-2.2,1.1
						c1.1,2.3,2.2,4.6,3.4,6.9c0.5-1.6,1.1-3.3,1.6-5c0.5-1.7,1-3.5,1.6-5.3c1.1-3.6,2.2-7.3,3.5-10.8c0.6-1.8,1.3-3.5,1.9-5.1
						c0.7-1.6,1.4-3.2,2.1-4.7C541.2,1565.6,542.8,1563.1,544.5,1561.3z"/>
					<path class="st0" d="M575.3,1541.1c-1.7,0.1-1.2-1.8-1.1-2c0-0.1-0.1,0.2-0.6,1.4c-0.5,1.2-1.6,3.1-3.3,6.5
						c0.7-0.5,0.9-0.5,1.4-0.8C572.3,1545,573.4,1543.5,575.3,1541.1z"/>
					<path class="st0" d="M571.7,1546.2C568.2,1551.7,575.9,1543.9,571.7,1546.2L571.7,1546.2z"/>
					<path class="st0" d="M588.1,1520.7c-1.2,2.8-2.2,5.6-3.3,8.4c2.4-0.5,7.3-6.3,6.5-3.3C595.8,1518,593.4,1518.4,588.1,1520.7z"
						/>
					<path class="st0" d="M589.2,1511c-0.7,1.4-1.4,2.8-2,4.2C588.2,1515,589.1,1514.2,589.2,1511z"/>
					<path class="st0" d="M583,1524.1c1.3-3,2.7-6,4.2-9c-1.7,0.3-3.6-1-2.1,4C583.9,1517.2,584.3,1520,583,1524.1z"/>
					<path class="st0" d="M578.9,1527.8c-4.1,3-8.7,7.7-5.5-1c-2.3,3.6-3.6,6.3-4.2,8.2c-0.6,1.9-0.4,2.9,0.3,3
						c0.7,0.1,1.9-0.7,3.5-2.4C574.6,1533.9,576.7,1531.4,578.9,1527.8z"/>
					<path class="st0" d="M539.7,1554.7l-5.1,4.9c-0.3,2.1-0.5,4.2-0.7,6.3c0.1-0.8,0.6-1.9,1.3-3c0.7-1.2,1.7-2.4,2.5-3.5
						C539.3,1557.1,540.7,1555.1,539.7,1554.7z"/>
					<path class="st0" d="M626.8,1482.3c-0.7-1.5-5-0.7-6.8-1.6c-1.1,2-2.2,4-3.2,5.9C619.7,1484.9,624.8,1481,626.8,1482.3z"/>
					<path class="st0" d="M619.9,1480.7c1.7-2.9,3.3-5.9,5-8.8C618.5,1477.9,618.4,1480,619.9,1480.7z"/>
					<path class="st0" d="M584.1,1504.7c-1,2.7-2,5.4-2.9,8c-1,2.7-1.9,5.4-2.8,8c2.4-6.2,4.9-12.4,7.6-18.6L584.1,1504.7z"/>
					<path class="st0" d="M654.2,1456l-2,6.8c1.4-3.8,2.9-7.6,4.2-11.3C655.6,1452.9,654.9,1454.4,654.2,1456z"/>
					<path class="st0" d="M672.8,1436.8c-1,5.1,7.7-0.8,5.7,3.8c2.3-2.7,4.1-5.6,5.6-8.4c1.5-2.9,2.6-5.7,3.7-8.4
						c-1.5,2.4-3.5,4.7-5.9,6.9C679.4,1432.7,676.4,1434.8,672.8,1436.8z"/>
					<path class="st0" d="M691.8,1415c-1.5,2.5-2.7,5.5-4,8.7C689.4,1421.1,690.8,1418.3,691.8,1415z"/>
					<path class="st0" d="M637.5,1460.7c0.6,0.1,1.6,0.3,3,0.1c0.7-0.1,1.5-0.3,2.5-0.6c0.5-0.2,0.9-0.4,1.5-0.7
						c0.6-0.3,1.2-0.7,1.8-1.1l-3-0.1c-1-0.1-1.9-0.2-2.9-0.2C639.4,1458.9,638.5,1459.8,637.5,1460.7z"/>
					<path class="st0" d="M640.1,1458.1l0.2,0c3.3-3,5.6-5.1,6.6-5.9C646.1,1452.9,644,1454.7,640.1,1458.1z"/>
					<path class="st0" d="M636.7,1461.4c0.3-0.2,0.5-0.4,0.7-0.7C636.9,1460.7,636.6,1460.7,636.7,1461.4z"/>
					<path class="st0" d="M604,1487.6c0.5-1.5,1.3-3.2,2.1-5c0.7-1.7,1.4-3.4,1.7-4.7c0.6-2.6-0.5-3.8-5.9-0.7
						C601.1,1482.3,607.2,1478.7,604,1487.6z"/>
					<path class="st0" d="M629.6,1460.9l-4.1,3.3l-4.1,3.4c0.9,0.6,3.4,0.5,2.3,3.3l2.9-5L629.6,1460.9z"/>
					<path class="st0" d="M632.3,1456.3c-1,1.5-1.9,3-2.8,4.6c1-0.8,2-1.6,3.1-2.5L632.3,1456.3z"/>
					<path class="st0" d="M675.9,1425.3c2-4.7,5.5-8.4,9.3-12.7c-2.5,1.9-4.9,3.9-7.3,6c-2.4,2.1-4.7,4.2-6.8,6.4
						C671.5,1426.6,671.3,1430.2,675.9,1425.3z"/>
					<path class="st0" d="M658.6,1441c0.2-0.3,0.4-0.6,0.6-0.9C658.4,1440.3,658,1440.6,658.6,1441z"/>
					<path class="st0" d="M725.4,1374.9c-0.4,0-0.8,0-1.2,0c0.1,0.2,0.2,0.4,0.3,0.7L725.4,1374.9z"/>
					<path class="st0" d="M669.9,1425.2c-3.9,2.8-5.2,5.5-6.1,8.3c2.2-2.8,4.6-5.7,7.4-8.5C671,1424.3,670.8,1424,669.9,1425.2z"/>
					<path class="st0" d="M701.5,1402.7c-2.3,1-4.8,2.3-7.3,3.8C696.8,1405.8,701.6,1404.1,701.5,1402.7z"/>
					<path class="st0" d="M661.1,1439.8c-0.1,0.2-0.2,0.4-0.4,0.6C662.5,1440,662.1,1439.8,661.1,1439.8z"/>
					<path class="st0" d="M661.1,1439.8c1.3-2.2,1.9-4.3,2.6-6.3c-1.8,2.3-3.4,4.5-4.6,6.6C659.8,1439.9,660.5,1439.8,661.1,1439.8z
						"/>
					<path class="st0" d="M721.3,1342.9c0.9,1.8-0.6,5.4-3.5,8.8c-1.5,1.8-3.3,3.5-5.5,5.1c-1.1,0.8-2.2,1.5-3.5,2.1
						c-1.2,0.7-2.5,1.2-3.8,1.7c-5.9,9.1,8.1,14.2,19.3,14.1c-0.9-1.5-2-2.7,4.5-11c-2.1,0.2-7.2,3-11.4,4.5c-4.1,1.7-7.2,2.3-5.1-2
						c9.3-10.6,9.6-6.3,16.1-8.8c-3.7-0.2-1.5-4.3,1.1-8.9c2.6-4.5,5.4-9.5,2.1-11.5l-4.3,4.7c-1.4,1.6-2.9,3.1-4.2,4.8
						C722.2,1345.9,724.7,1341.6,721.3,1342.9z"/>
					<path class="st0" d="M709.4,1387.5c-0.9,1.1-1.9,2.2-2.8,3.3c2-1.4,3.9-2.4,6.2-3.3c2.3-0.9,4.8-1.7,8.2-2.6
						c3.9-6,4-8.1,3.6-9.4c-2.7,2.2-5.3,4.4-7.9,6.6l-7.9,6.8L709.4,1387.5z"/>
					<path class="st0" d="M692.8,1404.2c-0.6-5.4,5.6-14-2.3-12.9c-4.5,4.6-5.4,6.8-5.8,8.7c-0.4,1.9-0.1,3.5-2.2,6.9
						c13.9-15.3-2.5,5.9,9.8-2.9c-2.4,3.4-4.8,6.1-7.1,8.7c3-2.3,6-4.3,8.9-6.1c-0.2,0.1-0.3,0.1-0.5,0.1l-0.1,0.1c0,0,0,0,0-0.1
						c-1,0.2-1.4,0.2-0.5-0.3c0-0.1,0.2-0.3,0.2-0.4C693,1405.5,692.9,1404.9,692.8,1404.2c4.9-3.5,1.5,0.1,0.5,1.8
						c0.1,0.2,0.1,0.5,0.3,0.6c0,0,0.1,0,0.1,0c4.3-5.4,8.6-10.7,13-15.9c-1.8,1.3-3.6,2.8-5.8,5
						C698.6,1397.9,696.1,1400.7,692.8,1404.2z"/>
					<path class="st0" d="M602.7,1462.8c0.7-0.2,0.9,0,1.2,0.2C604.5,1461.7,604.6,1461,602.7,1462.8z"/>
					<path class="st0" d="M610.6,1458.5c-0.7,1.5-0.3,3.6-4,6.8c-3.9,2.2-1.5-1.4-2.6-2.3c-1.3,2.9-4.9,9.6,3,4.4l0.6-1.5
						c6.9-5,18.3-8.6,17.6-7.1c-2.2-0.6-4.2-0.9-6.4-1.1C616.4,1457.6,613.9,1457.8,610.6,1458.5z"/>
					<path class="st0" d="M651.7,1430.4c3.7-4.6,7.3-9.3,10.9-13.9l-8.9,3.7l1.9,1.3C647.9,1427.9,651.3,1428.3,651.7,1430.4z"/>
					<path class="st0" d="M728.2,1375.3l1.3,4.8c1-3.6,2-7.3,3.1-10.9C731.1,1371.2,729.7,1373.3,728.2,1375.3z"/>
					<path class="st0" d="M744.3,1362l1.7,3.6c1-1.7,2-3.4,3-5.1C747.5,1361,745.9,1361.5,744.3,1362z"/>
					<path class="st0" d="M744.8,629.1l3.8-3.7C746.6,627,745.5,628.1,744.8,629.1z"/>
					<path class="st0" d="M712.9,648.6l0.3,2.1C714.1,648.9,714.2,647.9,712.9,648.6z"/>
					<path class="st0" d="M733.4,1030.3c-7.8-3-16.3-8.1-15.1-3.8l2.6,4.1C725.8,1029.5,729.9,1029.6,733.4,1030.3z"/>
					<path class="st0" d="M532.6,896.8c-0.7,0.5-1.4,1-2.1,1.4c0.6,2.3,1.1,4.4,1.7,6.3C532.2,902.2,532.4,899.6,532.6,896.8z"/>
					<path class="st0" d="M518.5,884.5l6.7-7.8C523.4,878.3,521.2,880.8,518.5,884.5z"/>
					<path class="st0" d="M864.7,531c-1.6,0.2-3.1,0.7-4.5,1.3c0.4,0.5,1,0.5,1.8,0.1C862.8,532.1,863.7,531.4,864.7,531z"/>
					<path class="st0" d="M942.5,1234.4c6.6-4.2,11.3-8.7,14.9-13.2C949.4,1227.7,941.6,1230.1,942.5,1234.4z"/>
					<path class="st0" d="M756.6,675.9c2.3-2.3,2.9-3.8,2.3-4.5C756.6,673.7,755.5,675.4,756.6,675.9z"/>
					<path class="st0" d="M969.8,1199.5c-1,1.3-1.9,2.6-2.9,3.9c-2.1,6.1-4.9,12-9.5,17.8c1.5-1.2,2.9-2.6,4.3-4.1
						c1.4-1.5,2.7-3.2,3.8-5c1.1-1.8,2.1-3.8,2.9-5.9C969.2,1204.1,969.7,1201.8,969.8,1199.5z"/>
					<path class="st0" d="M741.5,145.5c0.5-0.2,1.1-0.6,1.6-0.8C742.8,144.2,742.2,144.7,741.5,145.5z"/>
					<path class="st0" d="M938.7,49.2c-1.5,1.3-4.1,3-6.5,4.8C933.6,53.4,935.6,52,938.7,49.2z"/>
					<path class="st0" d="M822,1319.7C817.8,1322.4,821.5,1320.5,822,1319.7L822,1319.7z"/>
					<path class="st0" d="M792.8,1316.1c0.7-0.9,1.1-1.8,0.7-2.8C793.7,1314.4,793.4,1315.3,792.8,1316.1z"/>
					<path class="st0" d="M945.3,1142.8c-0.1-0.1-0.1-0.2-0.1-0.4c-0.1,0.8-0.2,1.1-0.2,1.2C945,1143.6,945.1,1143.3,945.3,1142.8z"
						/>
					<path class="st0" d="M814.5,1321.6c1.9-0.4,4-1.1,6.2-2C819.6,1319.9,817.7,1320.4,814.5,1321.6z"/>
					<path class="st0" d="M816.3,1322.9c-1.6,0.7-2.8,1.2-4,1.7C812.2,1325.6,812.9,1325.7,816.3,1322.9z"/>
					<path class="st0" d="M827.9,1316c-2.5,1.5-4.9,2.6-7.3,3.6c1-0.2,1.5-0.2,1.3,0C823.2,1318.9,825,1317.8,827.9,1316z"/>
					<path class="st0" d="M556.1,467.9c-0.2-0.3-0.6-0.6-0.8-1c-2.9-0.8-3.8-1.1-3.4-0.7C552.2,466.4,553.9,467.1,556.1,467.9z"/>
					<path class="st0" d="M610.5,1076.4c0.2,0,0.3-0.2,0.5-0.2c-0.2,0-0.5-0.1-0.7-0.1L610.5,1076.4z"/>
					<path class="st0" d="M593.1,1079.8c7.5-5.5,11.7-4.9,17.2-3.8l-5.9-12.4C600.7,1069,596.9,1074.4,593.1,1079.8z"/>
					<path class="st0" d="M820.7,583.3c-3.9,0.9-7.8,1.8-11.8,2.7c4.3-6.3,8.6-10.3,10.4-12.6c1.8-2.3,1.2-2.9-4.6-2.4
						c3.1,6.1-6,12.3-15.6,18.2c-9.6,5.9-19.6,11.8-17.1,18.1l-8.4,1.4c2.1-1,2-1.9,4.1-2.9c-8.4,0.9-9.9,4.5-11.6,9
						c-0.9,2.2-1.8,4.6-3.8,7.2c-0.3,0.3-0.5,0.7-0.8,1c-0.3,0.3-0.6,0.6-0.9,1c-0.5,0.6-1.2,1.2-1.9,1.8c-1.4,1.2-3.2,2.3-5.4,3.4
						c-6.5,2.8-11.6,3.7-8.5-0.2l-11.5,11.1c-4,2.2-4.3-0.4-0.3-2.6c-6.6,4.5-13.2,9-19.7,13.6l-0.1-0.4c-1.8,3.7-6.6,10.6-9,13.9
						c-6.2,1.7,1.8-2.9-0.4-3.5c-3.1,3.4-6.3,6.7-9.4,10.1c-6.5,0.1,0.9-9,8.9-13.6c-8.9-2.2-10.9,0-13.9,3.9
						c-3,3.9-7.1,9.2-20.6,14l4.8-4.5l4.8-4.4c-2.8-0.4-5.3-0.2-7.8,0.4c-2.4,0.6-4.8,1.7-7.3,2.9c-1.2,0.6-2.5,1.3-3.8,2
						c-1.3,0.7-2.7,1.5-4.1,2.2c-2.9,1.5-6.1,2.9-9.8,4.3c2.2-0.2,10-2.2,16-2.7c6-0.4,10,0.7,5,6.3c-3.9,1.7-8.8,4.5-13.4,11.7
						c-1.5-1.9-3.7-1.4-6.4,0.4c-2.7,1.8-5.9,4.9-9.6,8.2l-3.6-5.3c-7.1,8.5-4.3,10.4-7.1,16.8c-2.3,1.9-4.4,3.2-6.3,4.1
						c-1.8,0.9-3.5,1.4-5.1,1.6c-3.1,0.4-5.7-0.3-8.2-0.7c-7.4,7-3.5,5.8,0.2,5.2c3.7-0.6,7.2-0.6-0.4,8.3c-1.6,1.3-3.2,2.5-4.6,3.9
						c-1.4,1.3-2.7,2.7-3.9,4.1c-2.4,2.8-4.7,5.6-6.6,8.7c-1.9,3.1-3.8,6.4-5.7,10.1c-1.8,3.7-3.6,7.7-5.6,12
						c-8.1,7.9-2.1-3.8-5.9-1.6l-1.3,11c-1.4,1.9-2.3,0.4-2.8-0.3c-1.5,4-0.2,5,0.7,6.5c0.9,1.5,1.5,3.5-1.2,9.3
						c1,1.6,0.2,3.5-1.7,5.7c-1.9,2.2-4.9,4.7-8,7.5c-3,2.9-6.3,6.2-8.8,9.8c-2.4,3.7-4.1,7.7-4.2,12.1c-3.4,2.6-2.6-3.5-5.3-3.6
						c-1.4,5.4-2.3,9.3-3.1,12.3c-0.8,3-1.3,5.2-1.7,7.3c-0.4,2.1-0.7,4.1-0.9,6.8c-0.3,2.7-0.5,6-0.8,10.7
						c-3.4,3.9-6.8,7.7-10.2,11.6c4.5-3.9,6.5-2.1,7.4,2.3c0.8,4.4,0.4,11.4,0,17.9c3.7-2.5,6.9-4.7,8.7-6.2l-4.9,19
						c-1.9,1.7-3.1-1-4.2-5c-0.1,1.4-0.1,2.8-0.1,3.9c-5,5.3-6.9,0.5-8.1-5.5c2.1-1.6,4.3-3.2,6.5-4.7c-1.5-6-3.6-11.9-7.4-12.5
						c0.1,1.5-0.3,3.9-1.1,6.5c-0.4-1.6-1-2.7-1.8-2.4c-0.9,0.3-0.5,2.8-0.3,6.3l-8.3,1.1l2.1,2.2l-7.3,10.6
						c-2.4,3.6-4.8,7-7.3,10.7c-0.5,10,0.1,19.9,0.3,30.8c0.1,5.4,0.1,11.1-0.1,17.2c-0.2,6.1-0.6,12.7-1.1,19.9
						c-2-4-3.9-4.8-6.3-4.8c-2.3,0-4.9,1-7.9,0.3c4-3.7,4.6-9.6,5.1-16.6c0.6-7,1.2-15.1,4.6-22.3c-1.8,3.7-3.2,4.9-4.2,4.9
						c-1,0-1.6-1.3-1.7-2.5c-1.4,9.7-2.3,19.4-2.5,29.4c-4.8-1.7-5.2,5.2-8.3,13c2.7-1.2,4.2-0.3,5.1,1.9c0.4,1.1,0.7,2.5,0.9,4.1
						c0.1,0.8,0.2,1.7,0.2,2.6c0.1,0.9,0.2,1.9,0.2,2.9c0.1,2,0.3,4.2,0.4,6.4c0.2,2.3,0.4,4.5,0.8,6.8c0.3,2.2,0.9,4.5,1.5,6.5
						c0.3,1,0.7,2,1.1,2.9c0.4,0.9,0.7,1.7,1.2,2.5c-1.5,0.9-3.4,0.8-5.2-1.7c-0.5-0.6-0.9-1.4-1.4-2.4c-0.4-1-0.8-2.1-1.1-3.4
						c-0.7-2.6-1.1-6-1.1-10.1c-0.8,2.3-1.3,4.4-1.2,6.5c0,1,0.1,2,0.2,2.9c0.2,0.9,0.5,1.8,0.8,2.7c0.6,1.7,1.5,3.2,2.5,4.7
						c1,1.4,2.2,2.7,3.4,4c0.6,0.6,1.2,1.2,1.8,1.9c0.6,0.6,1.3,1.2,1.9,1.8c0.6,0.6,1.2,1.2,1.8,1.9c0.6,0.6,1.2,1.2,1.8,1.9
						c2.3,2.7,4.3,5.7,6.2,10.3c-1.5-1.6-2.3-3-3.2-3.9c-0.9-1-1.6-1.7-2.8-1.9c1,0.9,2,2,3.2,3.1c1.2,1.1,2.3,2.4,3.7,3.7
						c0.6,0.6,1.3,1.3,1.9,1.9c0.7,0.6,1.4,1.2,2,1.8c0.3,0.3,0.7,0.6,1,0.9c0.3,0.3,0.7,0.6,1,0.8c0.7,0.6,1.3,1.1,2,1.6
						c1.3,1,2.6,1.9,3.6,2.8c1.1,0.8,2,1.5,2.6,2.2c1.3,1.3,1.5,2.1-0.2,2.1c-1.4-0.6-2.8-1.3-4.1-2c1.7,0.9,3.4,1.9,5.4,2.8
						c0.9,0.4,1.9,0.8,2.8,1.2c0.9,0.4,1.8,0.7,2.8,1c1.9,0.7,3.8,1.2,5.8,1.8c1,0.3,2,0.5,3,0.7c1,0.2,2,0.5,3,0.7
						c8,1.6,16.3,2.3,23.7,2.3c7.5,0,14.2-0.7,19.2-1.9c5-1.2,8.4-2.8,9.3-5c0.2,1.1-2.9,10.2-4.3,11.9
						c13.3-9.4,25.5-19.3,38.3-28.9c-1.7,3.7,0.8,9.8,1.3,15.6c0.3,2.9,0.1,5.7-1.2,8c-1.3,2.3-3.7,4.2-8.1,5.3
						c2.5,0.5,5.3,1,8.8,1.1c3.4,0.1,7.5-0.2,12.1-1.3c-1.4-0.6-3.3-3.3-4.3-5.9c-1-2.6-1.1-5.2,1.2-5.4c1.5,1,2.8,1.9,3.8,2.7
						c0.5,0.4,1,0.7,1.5,1c0.5,0.3,0.9,0.6,1.4,0.8c1.7,1,2.9,1.6,4.2,2.1c2.6,1.1,5.6,2,13.7,5.8c-5.2-1.8,1.1-13,9.4-12.4
						c-1.3,1.7,0.4,11.3-2.7,12.4c7.1-3.5,14.1-7.2,21.1-10.9c-5.2,2-1,9.5,3.8,12.7c-1.1-1.1,3.5-1.1,9.1-1
						c5.6,0.1,12.3,0.1,15.1-0.7c-3-0.7-6.1-1.4-9.2-2.2c12.1,0.4,17.7-4.1,23.1-8.6c5.4-4.5,10.7-9.2,22.1-9.9
						c-2.6,2.5-5.6,14.8,5.9,15.3c2.4-3,7.6-10.4,15.1-17.5c1.9-1.8,3.9-3.5,6-5.2c2.1-1.7,4.4-3.2,6.8-4.6c2.4-1.4,4.9-2.6,7.5-3.5
						c2.6-1,5.3-1.6,8.1-2c1.3,1.2,2.6,2.4,3.9,3.6c2.8-0.4,5.6-0.8,8.4-1l4.3-0.4l4.3-0.2c-1.5,0.9-3.3,1.8-5.3,2.8
						c-1.9,1-4.1,2.2-6.5,3.5c-2.3,1.2-4.7,2.7-7.2,4c-2.5,1.4-5,3-7.5,4.4c-10,6-19.8,12.7-26.7,16.6c4.2,1.1,4.8,2.1,5.9,2.6
						c0.6,0.3,1.2,0.5,2.5,0.6c1.3,0.1,3.2,0,6.1,0c2.1,1.5,0.5,2.7-2.1,3.5c-2.6,0.9-6.1,1.4-7.8,1.6c9.3,0.3,18.3,1,26.7,2.3
						c-0.2-1.7,1-2.9,2.9-3.7c0.9-0.4,2.1-0.8,3.3-1.1c1.2-0.3,2.5-0.5,3.8-0.7c0.7-0.1,1.3-0.2,1.9-0.3c0.6-0.1,1.3-0.2,1.9-0.3
						c1.2-0.2,2.3-0.4,3.3-0.7c2-0.5,3.4-1.3,3.4-2.7c-10,0.2-19.8,1.7-29.6,3.7c-0.2-1.7,0.7-3.7,2.7-5.7c1-1,2.2-2,3.6-2.9
						c1.4-0.9,3.1-1.9,5-2.7c1.8-0.8,3.9-1.5,6-2c2.2-0.5,4.5-0.9,6.8-1.1c4.7-0.4,9.9,0.2,14.8,1.7c2.2,2,0.5,4.6-1.7,7.1
						c-2.2,2.5-4.8,4.8-4.9,6c1.5-0.9,6.2-0.9,10.8-0.2c1.1,0.2,2.3,0.4,3.3,0.6c1.1,0.3,2.1,0.5,2.9,0.8c1.7,0.5,3,1.1,3.3,1.7
						c-1.5,0.1-3,0.3-4.5,0.4c-1.5,0.1-3,0.3-4.5,0.5c2.4,1.3,4.8,1.9,7.3,2c2.4,0.2,5,0,7.5,0c2.5,0,5.1,0.2,7.7,1.1
						c2.6,0.9,5.1,2.5,7.5,5.3c1,0.6,2,1.7,3.1,3c0.5,0.7,1,1.4,1.5,2.1c0.5,0.7,1,1.4,1.4,2.1c0.9,1.4,1.8,2.5,2.6,3.2
						c0.8,0.7,1.5,0.8,2.1,0c-2.8-10.1,5.5-32.3,13.2-35c0.3,0.3,1.9,1.6,3.9,3.6c1,1,2.2,2.1,3.4,3.3c1.2,1.3,2.5,2.6,3.8,4
						c5.2,5.6,10.1,12,11.3,15.2c1.6,4.8-3,5.9-7.5,7c-4.5,1.2-8.9,2.3-7.7,6.2c0.6-0.7,2.1-0.9,3.7-1c1.6,0,3.2,0.2,4.1,0.5
						c1.5,2,0.3,2.9-0.2,3.9c-0.5,1-0.3,2.2,4,5c1.4-1.1,3.1-0.7,4.7,0.1c0.8,0.4,1.6,1,2.3,1.6c0.7,0.6,1.3,1.2,1.8,1.8
						c1,1.1,1.6,1.8,1.5,1.3c-0.1-0.3-0.3-0.8-0.7-1.8c-0.5-1-1.1-2.4-2.2-4.3c4.5,2.6,6.3,4.7,7.9,7.2c0.4,0.6,0.8,1.2,1.3,1.9
						c0.5,0.7,0.9,1.4,1.4,2.1c0.5,0.8,1.1,1.6,1.9,2.5c0.7,0.9,1.4,1.9,2.4,3c0.3-1.4,1.5-2.2,3.5-2.5c0.9-0.1,2.1-0.1,3.3,0
						c1.2,0.2,2.5,0.5,3.9,0.9c2.8,0.9,5.6,2.4,8.4,4.3c1.3,1,2.5,2.1,3.7,3.2c0.6,0.6,1.1,1.1,1.6,1.8c0.5,0.6,0.9,1.2,1.3,1.9
						c-1.8,0.1-2.9,3.3-3.4,4.8c0.5,1.3,0.8,2.6,1.2,3.9c0.2,0.6,0.4,1.3,0.5,1.9c0.1,0.6,0.2,1.3,0.3,1.9c0.2,1.2,0.4,2.4,0.6,3.6
						c0.1,1.2,0.2,2.3,0.2,3.5c0.2,2.3,0,4.5-0.1,6.6c0,0.5-0.1,1.1-0.1,1.6c-0.1,0.5-0.2,1-0.2,1.5c-0.2,1-0.3,2-0.5,3
						c-0.1,1-0.4,2-0.6,3c-0.3,1-0.4,2-0.7,2.9c-0.6,1.9-1.2,3.9-2,5.8c-0.7,2-1.6,3.9-2.5,6c-0.5,1-1,2-1.5,3.1
						c-0.5,1.1-1.1,2.1-1.7,3.2c-1.1,0.4-3.4,2.4-5.4,3.5c-2.1,1.1-3.8,1.4-3.9-1c-0.3,1.4-0.2,3-0.7,4.8c-0.2,0.9-0.6,1.9-1.1,2.9
						c-0.5,1-1.3,2.1-2.2,3.3c-3.1,1.2-4.1,1-4,0.3c0-0.7,1.2-2.1,2.2-3.6c0.5-0.7,1-1.5,1.4-2.2c0.4-0.7,0.6-1.4,0.6-1.9
						c0.1-1.1-0.8-1.6-3.5-1.1c0.7,0.8,0.7,2.1,0.2,3.7c-0.4,1.7-1.4,3.7-2.6,5.8c-2.5,4.3-6.3,9-8.9,12.8c3,1.5,7.2-1.7,10.9-6.4
						c0.9-1.2,1.8-2.4,2.6-3.8c0.8-1.3,1.6-2.6,2.3-4c1.4-2.6,2.4-5.2,3.2-7.3c1.7,1.2,2.9,3.2,3.4,5.9c0.6,2.7,0.4,6.1-0.6,9.9
						c-1.9,7.7-7.2,17.2-15.3,25.8c-6.7,6.4-9.2,6.4-10.1,5.2c-0.9-1.2-0.4-3.5-1.3-2.1c-7.1,4.6-11.7,8.4-15,11.9
						c-3.3,3.5-5.3,6.8-7.2,9.7c-1.9,3-3.8,5.8-6.8,8.3c-3,2.6-7.2,4.9-13.6,7.1c-5.9,0.5-7.4-1.7-8-4.3c-0.6-2.6-0.1-5.6-2.2-6.6
						c11-9.2,20.4-8.4,28.6-13.7c-3.8,1.4-7.7,2.7-11.5,4c3-3.9,10.4-10,15.6-11.5c-2.6,0.2-6.8,2.1-12.2,4.9
						c-5.3,2.8-11.8,6.5-18.6,10.6c-3.4,2-6.9,4.2-10.4,6.4c-3.5,2.2-6.9,4.5-10.4,6.5c-6.9,4.1-13.7,7.5-19.8,9.7
						c-2.9,3.8-8.8,9.2-4.6,9.3c2.2-1.6,4.4-3.1,6.6-4.6c4.3,0,1.8,3.2-0.6,6c-2.4,2.8-4.7,5.1,0.3,3.4c-8,8.1-16.5,18.1-31,23.1
						l-5.4-4.1c1.1,1.4,10.4-1.4,13.3-5.1c-4.3,5.4-24.4,3.7-26.6,14l11.3-1.3c-4,3.9-8.1,8.9-12.6,13.4c-1.1,1.1-2.3,2.3-3.5,3.3
						c-1.1,1.1-2.2,2.1-3.4,3c-1.2,0.9-2.4,1.8-3.7,2.6c-1.3,0.8-2.6,1.6-4,2.2c4,1,4.4,0.4,5.3-0.1c0.9-0.6,2.2-1.3,7.6-0.4
						c-2.7-1-2.4-2.4-0.7-4.1c1.9-1.7,5.4-3.6,8.8-5.5c6.8-3.7,13.2-7.2,5.2-8.1c12.4,2.6,16.4-4.8,31.2-4.8
						c-1.3-1.6-5.9-1.2,4.7-5.8c0.2-0.8,0.9-2,1.4-2.8c0.3-0.1,0.5-0.2,0.8-0.2c-0.2,0-0.4,0-0.7,0.1c0.3-0.5,0.3-0.6-0.2,0
						c-2.8,0.5-5.3,0.7-6.6,0.1c1.4-3.4,6.1-7.3,11-11c4.9-3.7,9.9-7.3,12-10c6.4-2.7-1.3,3.5,3.1,3.4c2.1-2.6,4.1-5.3,6.1-8
						c1.6,1.7,6.5,0.7,9.5,0.7c1.5,0,2.5,0.2,2.3,1.2c-0.2,1-1.5,2.7-4.7,5.5c2.1-1.3,4.3-2.6,6.4-4l6-3.9c3.8-1,8.1-2.7,12.3-4.9
						c4.1-2.1,7.9-4.7,10.5-7.4c6.2-2.6,12.1-13.2,8.8-7.1c6-4.8,12.1-9.7,18.1-14.9l0.8,0.8c4.9-3.2,9.7-7,14.3-11.3
						c4.6-4.2,9.2-8.9,13.8-13.8c4.6-4.9,9.2-10.1,14.1-15.6c4.9-5.5,10.1-11.4,15.6-18.3c0.4-1.2,0.8-2.4,1.2-3.6
						c0.4-1.2,0.7-2.5,1.1-3.8c0.8-2.6,1.3-5.4,2-8.3c1.2-6,2.4-12.9,3.1-21.4c1.3-1.1,2.5-2.3,3.8-3.5c-0.7-6.8-1.4-17.2-3.8-26.1
						c-0.3-1.1-0.6-2.2-0.9-3.3c-0.3-1.1-0.7-2.1-1-3c-0.7-1.9-1.5-3.8-2.2-5.3c-1.6-3-3.3-5.2-4.8-5.9c0.3-2.1,0-4.5-0.8-7.3
						c-0.2-0.7-0.4-1.4-0.7-2.1c-0.3-0.7-0.6-1.4-0.9-2.1c-0.6-1.4-1.4-2.9-2.2-4.3c-3.5-5.7-8.5-11.8-14.2-16.9
						c-0.7-0.7-1.4-1.3-2.1-2l-2.2-1.8c-1.5-1.2-3-2.5-4.5-3.6c-3-2.2-6-4.5-8.9-6.4c-5.7-4-11-7.3-14.8-10.3l-3.3,3.9
						c-2.7-1.8-5.5-3.4-8.3-5c-2.9-1.5-5.8-2.9-8.8-4.2c-6.1-2.6-12.8-4.9-20.3-7.1l-0.9,4.5c-6.8-1-14.2-4.8-22.8-9
						c-8.6-4.2-18.3-8.7-29.1-10.6c1.8-1.4,7.2,0.2,10.6,2.2c-5.6-4-12.1-6.3-19.1-7.2c-3.4-0.4-6.9-0.7-10.3-0.5
						c-1.7,0-3.4,0.1-5.1,0.2c-1.7,0.2-3.4,0.3-5.1,0.5c-1.7,0.2-3.3,0.4-5,0.6c-1.6,0.2-3.3,0.4-4.9,0.6c-3.2,0.5-6.4,0.8-9.4,1.2
						c-3.1,0.3-6.1,0.4-9,0.3c-2.9-0.1-5.8-0.5-8.6-1.3c-5.3,2-9.3,1.7-13.1,0.9c0.5,0,0.9-0.2,1.3-0.3c-0.6,0-1.4,0-2.2,0.1
						c-2.4-0.6-4.9-1.3-7.5-1.8c2.3,0.9,4.5,1.6,6.4,1.9c-2.1,0.2-4.6,0.6-7.4,1.1c-2.7,0.5-5.7,1.2-8.6,2l-2.9-4.6
						c-0.5,0.1-0.9,0.1-1.3,0.2c-5.8-1.3-4.4,2.6-1.1,6c-2.9,1-5.5,2.2-7.5,3.4c-2.6-3.7-6.3-2.8-10.2-2.1
						c-3.9,0.8-8.2,1.4-11.4-2.7c-1.9,2.1-9.2,2.9-16.4,4.1c-7.3,1.2-14.5,2.9-16.3,7c-0.2-1.1-1.9-1.7,1.3-1.7
						c-6.6-1.2-13.1-2.5-19.2-0.4l-2.5-6.3c-1.2,0.6-2.6,1.2-4,1.9c-1.4,0.6-2.7,1.3-4,1.9c-2.6,1.3-5.1,2.7-7.6,4.1
						c-4.5-1.9-7.7-3.3-8.7-4.9c-0.9-1.6,0.3-3.3,4.8-5.7c-10.8,3.7-15,4.5-18.9,5.2c-3.9,0.7-7.3,1.4-16.3,5l0.9-3.9
						c-3.2,0-7.3,1.3-11.1,2.1c-3.8,0.8-7.3,1.1-9-0.6c-3.3-2.1-9.2-3.5-16.2-5.1c-3.5-0.8-7.3-1.7-11-2.8c-0.9-0.3-1.8-0.6-2.7-0.9
						c-0.9-0.3-1.7-0.6-2.6-1c-0.4-0.2-0.8-0.3-1.2-0.5c-0.3-0.1-0.7-0.3-1-0.4c-0.6-0.3-1.3-0.6-1.9-1l-1-0.6
						c-0.3-0.2-0.6-0.5-0.9-0.7l-0.5-0.3l-0.4-0.4l-0.9-0.8c-0.5-0.6-1-1.1-1.5-1.7l-0.7-0.9c-0.2-0.3-0.5-0.6-0.6-1
						c-1.6-2.7-2.6-5.3-3.2-9.1c-0.6-3.6-0.5-7.7,0-11.7c0.6-4,1.7-8.1,3.2-11.8c-3.1,1.1-4.2,0.8-4.2-0.4c0-0.6,0.2-1.4,0.7-2.3
						c0.4-0.9,1-2,1.7-3c2.5-4.4,6-9.4,1.8-11.3c3.2-1.2,6-5.1,6.8,0.7c0.5-4.2,1.7-7.9,2.9-11.1c1.3-3.2,2.8-6,4.1-8.7
						c2.6-5.4,4.6-10.3,3.6-17.6c3.4-0.8,2.1,5.2,4.4,4.2c0-1.6,0.2-6.3,2.5-7.4c2.3-1,1,3.4,0.9,6.5c0.9-2.1,1.6-4.1,2.1-5.9
						c0.5-1.9,0.8-3.6,1-5.1c0.3-3.1-0.1-5.6-0.9-7.6c-1.6-4.1-5-6.6-8.4-8.9c7.5-7.4,9-12,7.3-20.6c3.8-2,8.7-6,4.5,5.3
						c0.8-1.5,2.5-4.5,4.5-8.1c2-3.7,4.4-8,6.5-12.2c1.1-2.1,2-4.2,2.9-6.2c0.9-2,1.6-3.8,2.1-5.5c1-3.3,1.1-5.8-0.2-6.6
						c2.4-1.2,4.7-8.1,4.8-10c7.3-13.1,8.4-13.9,15.1-27l-2.9,3c-1-2.2-1.2-4-0.8-5.7c0.4-1.6,1.2-3.1,2.4-4.7
						c2.3-3.1,5.7-6.3,8.5-11.5l0.5,0.7c2.4-2.5,4.2-4.5,5.7-6.2c1.5-1.6,2.6-3,3.4-4.1c1.6-2.2,2.2-3.6,2.8-4.9
						c0.5-1.4,1.2-2.6,3-4.7c0.9-1,2-2.3,3.6-3.8c0.8-0.8,1.7-1.6,2.7-2.5c1.1-0.9,2.2-1.8,3.6-2.8l-4.7-1.8c-1.7-2.1-1.3-4,0.4-6
						c0.8-1,1.9-2,3.2-3.1c1.3-1,2.9-2,4.6-3c3.3-2.1,7-4.4,10.5-6.7c3.4-2.4,6.4-5.2,8.5-8.5c-1.9,0.6-4,1.2-5.9,1.9
						c0.4-1.1,1.1-2,2.1-2.7c1-0.8,2.2-1.4,3.6-1.9c1.4-0.5,2.9-1,4.6-1.3c1.6-0.4,3.4-0.6,5.2-0.8c3.5-0.4,7-0.8,10.3-1.2
						c3.2-0.4,5.9-1,7.7-2.1c1.9-0.5-1.2,2.9-2.6,5c2.5-1.2,4.4-2.1,5.7-3c1.3-0.8,2.2-1.5,2.7-2.1c1-1.2,0.4-2.1-0.3-3.1
						c-1.6-1.9-4.3-4.2,1.5-9.9c4.4,0.8,2.4,9.1,11.2,3c1.5-0.3,3.4-2.1,5.6-4.8c1.1-1.3,2.3-2.9,3.7-4.6c1.4-1.7,2.8-3.4,4.3-5.2
						c1.5-1.8,3.2-3.6,4.9-5.3c1.7-1.7,3.5-3.4,5.3-4.8c3.7-2.9,7.7-5.1,11.8-5.8c-4.2-0.4-8.5-0.7-3.1-6.6
						c9.4-7.3,32.4-8.9,37.3-21.6c1.7-0.2,2.5,0.1,2.9,0.6c3.3-3.3,9.3-8,14.6-12.8c1.3-1.2,2.7-2.4,3.9-3.5
						c0.6-0.6,1.2-1.2,1.8-1.7c0.5-0.5,0.9-1,1.4-1.5c1.8-2,3.3-3.9,4-5.6c3.8,2.6,8.5,1.8,13.7-0.8c5.2-2.5,10.8-6.8,16.1-11
						c10.7-8.5,20.1-16.9,24-10.4c8.2-5.4,16.4-11,24.3-17.2l0.3,1.7c8.2-5.3,13-10.2,16-14.5c3.1-4.3,4.4-8.1,5.5-11.9
						c4-2.6,2.7,0.8,2.9,1.7c5.8-4.8,10.1-9.3,13.3-13.6c0.8-1,1.6-2.1,2.3-3.2c0.3-0.5,0.7-1,1-1.6c0.3-0.6,0.6-1.1,0.9-1.7
						c0.3-0.6,0.6-1.1,0.9-1.6c0.3-0.6,0.6-1.2,0.8-1.8c0.5-1.2,1-2.3,1.4-3.5c1.6-4.7,2.4-9.4,2.1-14.8c-0.2-2.7-0.5-5.5-1.4-8.5
						c-0.8-3-2.1-6.2-3.9-9.4c1.3-1.3,2.7-2.8,3.9-4.3c-1.4-1.8-2.7-6-5.4-11.4c-0.7-1.3-1.4-2.8-2.3-4.3c-0.9-1.5-1.8-3-2.9-4.6
						c-0.5-0.8-1.1-1.6-1.7-2.3c-0.5-0.7-1.1-1.4-1.7-2.1c-1.1-1.5-2.3-2.8-3.6-4.2c-1.3-1.4-2.7-2.7-4.1-4.1
						c-1.4-1.4-3-2.6-4.5-3.9c-1.6-1.2-3.2-2.5-4.9-3.6c-1.7-1.1-3.4-2.3-5.2-3.2c-7.1-4-14.8-6.7-22.1-7.6c0.5-0.4,1.3-1.2,3.8-1
						c-8.4-1.5-16.8-3.9-25.4-6.5c-8.5-2.5-17-5.2-25-7.1c-15.9-3.8-29.5-4.7-35.3,4.1c-6.6,1.2-13.2,2.5-19.7,3.9
						c12.6,1,11.6,2.9,8.7,5c-2.8,2.1-7.5,4.3-2.4,6c-9.8,0.8-25.3-5.8-13.2-6.6l1.9,0.9c2.3-4.7-5.4-5.6-13.7-6.2
						c-8.3-0.5-17-0.7-16.6-3.9c-24.6,0.1-48.7-1-72.1-3.1c-5.8-0.5-11.6-1.1-17.4-1.7l-4.3-0.5l-2.1-0.2l-1.1-0.1l-1-0.1
						c-1.3-0.2-2.6-0.3-3.9-0.5l-3.8-0.6c-10-1.8-19.4-4.6-27.2-8.2c0.1,1.4,0.2,2.8,0.4,4.2c0.2,1.4,0.4,2.8,0.7,4.2
						c-4.2-1.8-8.1-3.8-11.6-6.2c-0.5-0.8-0.7-1.7-0.7-2.4c0-0.7,0.3-1.4,0.8-1.7c0.5-0.4,1.3-0.5,2.3-0.3c1,0.3,2.4,0.8,4.2,1.9
						c-1-2.9-4.1-3.8-7.3-4.2c-3.1-0.4-6.4-0.5-7.1-0.1c-0.6-0.9-1-1.6-1.3-2.3c-0.3-0.7-0.4-1.3-0.6-1.7c-0.2-1-0.1-1.6,0.3-1.9
						c0.3-0.4,0.8-0.5,1.4-0.4c0.6,0,1.3,0.2,2.1,0.4c2.9,0.8,6.5,2.1,5.1,0.7l-1.1-0.8c-0.3-0.3-0.6-0.6-0.9-0.9L567,430
						c-0.2-0.1-0.3-0.3-0.4-0.5c-0.3-0.3-0.6-0.6-0.9-0.9l0,1.4c-0.6-0.2-1.2-0.3-1.8-0.5c-0.6-0.2-1.1-0.3-1.6-0.4
						c-1.1-0.3-2-0.6-2.9-1.1c-1.8-1-3.6-2.9-4.5-7.6c0.1-3.1,1.2-4,2.2-4.4c0.9-0.4,1.8-0.4,1.8-1.5c0.3,0,0.4-0.2,0.5-0.7
						c0-0.3,0-0.6-0.1-1.1c-0.1-0.4-0.2-1-0.3-1.7c0.2-4.6,1.2-9.5,2.7-14.6l-1.8,1.2l-1.7,1.3c-1.1,0.8-2.4,1.8-3.5,2.7
						c-1.7-7.8,4.4-15.7-4.3-9.5c1.6-1.2,3.2-3,4.8-5.3c0.8-1.2,1.7-2.4,2.5-3.8c0.9-1.4,1.6-2.9,2.6-4.4c0.9-1.5,1.8-3.2,2.7-4.8
						c0.9-1.7,2-3.4,2.9-5.1c0.5-0.9,0.9-1.8,1.5-2.6c0.5-0.9,1.1-1.8,1.6-2.6c1.1-1.8,2.1-3.6,3.2-5.3c4.3-7.1,9.2-13.9,13.3-19.2
						c2.1-2.6,4-4.9,5.7-6.6c1.7-1.7,3-2.9,4-3.4c1.1-2.9,2.6-5.6,4.2-8.3c1.6-2.6,3.6-5.1,5.6-7.5c2.1-2.4,4.4-4.7,6.8-7.1
						c2.5-2.3,5.1-4.7,8-7.1c-1.8,0.8-4.2,0.4-4.9-1.2c-0.7-1.6,0.3-4.5,5.4-8.6c2.7,6.6,8.1,3.7,14.6-0.7
						c6.6-4.4,14.4-10.2,21.5-9.8c-5.7,0.5,1.2-5.7,7.5-11.6c6.3-5.9,11.9-11.7,3.3-10.7c9.3-6,3.6,3.5,12.1,0.8
						c8.7-10.1,20.7-18.4,33.5-27.1c12.8-8.7,26.6-18.1,38.5-30.6c-0.9-1.6-6.8,0.3-3.4-6.6l4.7-1.6l2.4-0.8l2.3-0.7l8.9-2.6
						c1.9-2.4,1.2-5.2,1.6-7.9c0.4-2.6,1.8-5.1,8.1-6.6c-2.2,0-5.5-0.1-2.7-3.3c13-8.8,25.4-18.3,37.9-28.2
						c12.5-9.8,24.9-20,37.8-29.9c12.8-9.9,26-19.6,39.8-28.5c3.4-2.2,6.9-4.4,10.5-6.5c3.6-2.2,7.2-4.3,10.8-6.4
						c7.2-4.1,14.4-7.7,21.7-10.5c-4.3,1-5.5,0.7-4.8-0.4c0.6-1.1,2.9-3,5.5-4.8c-3.8,1.7-2.4-3.6-4.5-5.1
						c8.3-3.2,16.5-5.8,24.5-7.4c0.2-2,1.7-3.7,3.9-5.2c1.9-1.4,4.8-2.5,7.9-3.7c3.1-1.2,6.6-2.4,9.2-3.9c0.7-0.4,1.3-0.8,1.8-1.1
						c0.6-0.4,1.1-0.8,1.5-1.2c0.8-0.8,1.3-1.7,1.4-2.6c-2.9,1.7-5.7,3.2-8.4,4.6c4.4-5.7-1.2-7.9-7.5-10.3
						c-3.2-1.2-6.7-2.4-9.6-3.7c-2.9-1.4-5.3-2.9-5.8-5.3c-0.6,0.9-1.4,1.6-2.1,2.3c-0.7,0.7-1.5,1.3-2.3,1.8
						c-1.7,1.1-3.5,2-5.6,2.7c-4.1,1.6-9,2.7-14,4.3c-5,1.6-10.1,3.6-14.5,6.6c-4.4,3-8.1,7-10.5,12.6c-4.9,1.3,1.3-4.9-2-5.1
						c-1.8,6.5-6.3,11.2-16.7,16.6c0.2-0.5,0.3-1.1,0.5-1.6c-13,10.2-23.1,16.5-33.9,22.9c-10.8,6.3-22.3,12.6-38.3,22.9l5.1,2.1
						c-6.9,4.4-9.2,4.3-12.9,5.7c-1.5,5.7,3.1,2.3,7.8-1.1c4.8-3.4,9.7-6.7,8.6-1c-7.2-0.6-18.7,8-29.8,16.6
						c-11.1,8.6-21.7,17.1-28.1,15.5c-4.9,4.2-3.2,4.6-1.6,5c1.6,0.4,3.2,0.8-1.6,5l-4.5,0.1l0.2,5c-6.6,5.2-12.2,5.4-14.2,3.8
						c1.7-1.2,3.8-4.5,5.2-6.2c-2.6,1.2-5.3,3.3-7.9,5.6c-2.6,2.4-5,5.1-7.3,7.7c-0.5,0.7-1.1,1.3-1.6,1.9c-0.5,0.6-0.9,1.1-1.3,1.6
						c-0.9,1.1-1.7,2.1-2.4,2.9c-1.5,1.8-2.7,3-3.5,3.4c3.2-2.1,6.2-4.2,9.2-6.4c-5,6-11,11.9-17.5,17.8
						c-6.5,5.9-13.5,11.6-20.6,17.4c-14.1,11.6-28.4,23.3-39.4,35.9l3.3,0.2c-8.6,9.4-12.9,12.1-17.6,14.8
						c-4.7,2.7-9.9,5.3-19.9,15.2l0.4-1.1c-2.8,5.3-7.7,11.1-13.5,16.1c1.7-3.3-1.6-2.1-4.7-0.9c-3.1,1.2-6.1,2.1-3.7-2.2
						c-2.2,2.8-4,5.1-5.4,7.1c-1.4,2-2.5,3.5-3.3,4.8c-1.6,2.5-2.2,4-2.6,5.3c-0.3,1.3-0.3,2.5-0.7,4.5c-0.2,1-0.5,2.2-0.9,3.8
						c-0.4,1.6-1,3.5-1.8,5.9c-1.9,0.2-3.8,0.4-5.6,0.7c-1.6,7.1-0.8,8.4-8.7,20.1c1.1-2.8,1.1-4,0.4-4.3c-0.7-0.4-1.9,0-3.2,0.4
						c-2.5,0.8-5.1,1.3-2.6-5.3c-3.2,2.4-5.8,4.9-8.2,7.5c-2.2,2.6-4.2,5.2-5.8,7.8c-1.5,2.6-2.8,5.2-4,7.7
						c-1.1,2.5-1.9,4.9-2.8,7.2c-0.9,2.2-1.5,4.5-2.3,6.5c-0.4,1-0.8,2-1.2,2.9c-0.4,0.9-0.9,1.8-1.3,2.7c-1.8,3.6-4.5,6.4-8.5,8.9
						c1.1,4.4,2.6,5,4.2,3.7c1.6-1.3,3.2-4.5,5-7.9c0.9-1.7,1.7-3.5,2.4-5.1c0.8-1.6,1.5-3,2.1-4.1c1.2-2.2,1.8-3.1,1.4-1.1
						c3-2.2,3.3,1.3,2.4,6.3c-0.9,5-2.8,11.5-4.8,15.7c-0.4,1.1-1.1,2.1-1.8,3.1c-0.7,1-1.6,1.9-2.5,2.9c-2,1.9-4.1,4-6.5,6.7
						c-1.1,1.4-2.3,2.9-3.4,4.7c-1.1,1.8-2.1,3.8-3,6.2c-1.7,4.7-2.9,10.7-2.1,18.4c-0.2-1.5-0.3-2.3-0.6-3.1
						c-0.2-0.8-0.4-1.6-0.5-3.1c-0.3,1.4-0.4,2.9-0.4,4.3c0,1.4,0.2,2.9,0.4,4.3c0.1,0.7,0.3,1.4,0.4,2.2c0.2,0.7,0.4,1.5,0.6,2.2
						c0.5,1.5,0.9,2.9,1.5,4.4c0.6,1.5,1.1,2.9,1.7,4.4c0.6,1.5,1.2,3,1.8,4.6c0.6,1.5,1.2,3.2,1.8,4.9c0.6,1.7,1.2,3.4,1.7,5.4
						c1.2,0.5,2.3,1.1,3.3,1.8c1,0.7,1.8,1.4,2.6,2.2c0.8,0.7,1.5,1.5,2.2,2.3c0.7,0.8,1.4,1.5,2.1,2.2c0.7,0.7,1.3,1.4,2,1.9
						c0.7,0.5,1.4,0.9,2.1,1.2c1.4,0.5,2.9,0.5,4.6-0.7c-3.4-2.7-6.8-5.7-9.7-9.2l-1.1-1.3l-1-1.4c-0.7-0.9-1.4-1.8-2-2.8
						c-1.2-1.9-2.5-3.9-3.6-5.9c2,3.4,4.9,6.2,7.9,8.8c0.8,0.6,1.6,1.2,2.4,1.8c0.8,0.6,1.6,1.2,2.5,1.7c1.7,1.1,3.4,2.2,5.2,3.2
						c3.5,2.1,7.2,4,11.1,6.3c3.8,2.3,7.9,4.8,12.4,8c-1.1,0.4-3.4,0.4-5.9,0.1c-1.3-0.2-2.7-0.4-4-0.7c-1.3-0.3-2.7-0.6-3.8-1.1
						c1.1,1.4,2.5,2.4,4,3.2c1.5,0.8,3,1.3,4.6,1.9c1.6,0.5,3.1,1,4.6,1.7c1.5,0.6,3,1.4,4.4,2.6c-1.1,1.7-3.5,2-6.7,1.3
						c-1.6-0.4-3.4-0.9-5.4-1.8c-1-0.4-2-0.9-3-1.4c-1-0.5-2.1-1.1-3.2-1.7c-4.3-2.4-8.8-5.5-13.2-8.8c-4.3-3.3-8.5-6.8-12.4-9.7
						c0.3,1.1,1,2.4,1.9,3.7c0.9,1.2,2.1,2.5,3.4,3.7c1.3,1.2,2.7,2.3,4.1,3.3c1.4,1,2.9,1.9,4.2,2.7c1.3,0.8,2.5,1.5,3.4,2.1
						c1,0.6,1.7,1.2,2,1.7c0.7,1,0.1,1.8-2.9,2.3c2.1-0.2,4-0.2,5.8,0.2c1.8,0.3,3.5,0.7,5.2,1.4c1.7,0.7,3.3,1.4,5,2.3
						c1.7,0.8,3.4,1.7,5.2,2.7c3.5,1.8,7.3,3.6,11.5,4.6c1,0.3,2.1,0.5,3.2,0.6c1.1,0.1,2.2,0.2,3.3,0.3c2.2,0.1,4.6-0.2,6.9-0.8
						l-2.1,4.4c3-0.1,9.2-1.3,14.2-0.6c-3.3,1.7-6.7,3.3-10.3,4.7c1-0.2,1.9-0.3,2.9-0.3c0.9-0.1,1.9-0.1,2.8-0.1
						c1.8,0,3.6,0.2,5.3,0.4c1.7,0.3,3.5,0.7,5.2,1c0.9,0.2,1.7,0.4,2.6,0.7l2.4,0.7c6.1,1.8,12.3,3.9,18.6,2.7
						c-13.1-0.5-14.5-2.1-14-3.9c0.5-1.9,2.9-4-2.5-6.1c8.1-1.1,13.2-0.9,17,0.1c3.7,1,6.1,2.7,8.6,4.6c4.9,3.7,10.5,8.1,28.3,7.1
						c-4.8,0.6-18.1-3.1-10.5-5.2c6.8,1.1,15.7,3,19.8,5.5c23.4-0.9-3.6-4.9,6.4-7.8c7.9,5.8,11.5-2.3,21.6-4.1l0.1,4.8
						c13.2,1.6,14.9-0.9,16.3-3.3c1.4-2.4,2.5-4.8,14.4-2.7c-3.4,2.2-6.7,4.4-10.1,6.6l12.4-1.6l-2.6,5.5c6.8-1.9,11.1-2.6,15.4-2.6
						c4.3,0,8.5,0.8,14.8,1.8c-2.8-3.5,2.1-8.8,13.4-8.2c3.7,1.7,2.6,2.8,2.5,3.5c-0.1,0.7,0.9,1,8.8,1.4c-3.9,2.7-7.9,6.1-14.5,1.2
						c-0.8,1.5-3.7,2.8-4.5,4.3c4,1.9,9,2.4,13.8,2.6c4.7,0.2,9.1,0,11.9,0.4c-2.1-0.5-4.6-1-5.8-1.8c7.6-1.4,15.3-2.6,22.9-3.4
						c3,2.5,0.1,3.3-2.8,4.2c4.4,0.3,7.9-1.3,14.1-0.1c-1.3,1.7-2.1,3.6-3.7,4.9c-1.6,1.4-3.9,2.3-8.4,2.4
						c6.8-0.1,13.4,0.1,19.8,0.7c0.2,0.5,0.7,1.2,1.4,2c0.7,0.8,1.4,1.7,2.1,2.6c0.7,0.9,1.2,1.7,1.4,2.3c0.2,0.6,0.1,1.1-0.6,1.2
						c1,0.7,2.1,1.3,3.2,1.8c0.6,0.2,1.2,0.5,1.8,0.7c0.6,0.2,1.2,0.4,1.9,0.6c1.3,0.3,2.6,0.7,4,1c0.7,0.2,1.3,0.3,2,0.5l1,0.3
						c0.3,0.1,0.7,0.2,1,0.3c0.7,0.2,1.4,0.4,2,0.6c0.6,0.3,1.3,0.5,1.9,0.8c0.7,0.2,1.2,0.6,1.9,0.9c0.3,0.2,0.6,0.3,0.9,0.5
						l0.8,0.5l0.8,0.5c0.1,0.1,0.2,0.2,0.3,0.2l0.2,0.2c0.3,0.2,0.6,0.5,0.8,0.7c0.4,0.5,0.6,1.2,0.6,1.9c0.8-0.1,1.8,0,2.7,1
						c0.3,1.3,0,2.7-0.5,3.9c-0.5,1.2-1.2,2.2-1.9,3.2c-0.3,0.5-0.6,0.9-0.9,1.4c-0.2,0.2-0.2,0.4-0.5,0.9c-0.1,0.2-0.2,0.4-0.3,0.6
						c-0.1,0.2-0.3,0.5-0.4,0.8c-1,2.2-2.2,5-3.6,8.5c-3.5,0.5-7.1,0.8-10.7,1c-3.7,4.5-0.2,4.3,2.9,4.6c1.5,0.2,2.9,0.5,3.1,1.9
						c0.2,1.3-0.8,3.6-4.5,7.7c-2.6,2.9-4.5,4.3-5.9,4.7c-1.4,0.5-2.3,0-2.9-0.7c-1.4-1.5-2.1-4.2-4.8-3.3c-2,3.7-4.8,9-9.3,13.8
						c-4.5,4.8-10.6,9.1-18.6,10.5C813.2,587.4,817.1,586.3,820.7,583.3z M666.9,682.1c2.4-2.9,6.5-9.8,10.3-8.9
						C677,680,672.9,679.8,666.9,682.1z M513.1,917.3c-0.4-3,2-6.4,5.6-9.8C517.6,910.7,515.9,914,513.1,917.3z M865.7,1287.9
						c0.1-0.1,0.1-0.2,0.2-0.4c3.7-1.2,4.9-1.6,4.6-1.4C870.1,1286.2,868.2,1286.9,865.7,1287.9z M851.6,1294.6
						c-1.1,1.5-0.6,2,0.4,2.2c0.2-0.8,1-1.8,2.4-2.9c1.2-0.9,2.6-1.8,4.4-2.8c-0.8-0.2-1.7-0.3-2.8,0.2c-0.6,0.2-1.2,0.6-1.8,1.1
						c-0.3,0.2-0.7,0.6-1.1,1C852.5,1293.7,852,1294.1,851.6,1294.6z M557,413.5c-0.4,0.8-0.8,1.5-1.1,2.3c-0.1-0.3-0.2-0.6-0.3-0.8
						c-0.1-0.3-0.1-0.5-0.2-0.7c-0.1-0.4-0.2-0.8-0.2-1.1c-0.1-0.6,0-0.8,0.1-0.9C555.6,412.1,556.3,412.8,557,413.5z"/>
					<path class="st0" d="M520.1,886c1.2-0.6,2.1-0.4,3-0.3C522.9,884.1,522.1,883.7,520.1,886z"/>
					<path class="st0" d="M865.6,530.9c0-0.1,0-0.1,0-0.2c-0.3,0.1-0.6,0.2-0.9,0.3C865,530.9,865.3,530.9,865.6,530.9z"/>
					<path class="st0" d="M892.7,1110.1c-2-2.3-3-4-3.4-5.4c-0.4,0.4-0.4,1.1,0.1,1.9C889.9,1107.5,891,1108.6,892.7,1110.1z"/>
					<path class="st0" d="M778.9,1345.6l8.4-6c-4.3,2.6-6.3,2.5-8.9,3C779.2,1343.5,781.7,1344,778.9,1345.6z"/>
					<path class="st0" d="M691.6,1372.7c-0.7,1.5-2.3,2.3-3,3.7l1.8,1.3C695,1373.2,697.2,1368.8,691.6,1372.7z"/>
					<path class="st0" d="M762.9,1336.1c-1.3-1.6-3.3-1.3-5.6,0c-1.2,0.6-2.4,1.5-3.6,2.4c-1.2,1-2.6,2-4,3.1c0.3-0.2,0.7-0.5,1-0.6
						c0.6,2.9,2.3,3.1,4.4,1.8c1.1-0.6,2.2-1.6,3.5-2.8C760,1338.8,761.4,1337.4,762.9,1336.1z"/>
					<path class="st0" d="M748.4,1342.5c-1.7,1.3-3.4,2.6-5.3,3.6C743.8,1348.5,745.6,1345.1,748.4,1342.5z"/>
					<path class="st0" d="M834.6,1308.5c-3.6,1,0.7,5.7-1.9,5.3c-0.5,3.3,4-1.2,6.6-4.9C841.7,1305.1,842.4,1302.2,834.6,1308.5z"/>
					<polygon class="st0" points="751.2,1327.4 755.9,1330.4 757.5,1324.9 					"/>
					<path class="st0" d="M803.6,1303l-10.9,4.4c0.6,0.7-0.5,1.8-1.9,3C797.2,1307.1,804.6,1304.1,803.6,1303z"/>
					<path class="st0" d="M790.8,1310.3c-3.4,1.7-6.4,3.5-7.9,5.2C784.6,1314.5,788.4,1312.3,790.8,1310.3z"/>
					<polygon class="st0" points="764.4,1318.3 768,1317.5 775.4,1313.9 					"/>
					<path class="st0" d="M910.9,1236.6c3.1-3,6.2-6.1,9.2-9.3c-0.2-2.2-3.4-0.6-6.7,2.9C911.7,1233,908.3,1236.4,910.9,1236.6z"/>
					<path class="st0" d="M871.3,1246.6c3.5-0.9,4.2-0.1,6.7,0.3l-3-5.5L871.3,1246.6z"/>
					<path class="st0" d="M900.6,1225.3c0-0.5,0.7-1.7,1.5-3c0.8-1.3,1.8-2.8,2.4-3.9c0.6-1.1,0.8-1.8,0.2-1.7
						c-0.6,0.2-2.1,1.2-5,3.6C899.8,1222.4,890.8,1230.8,900.6,1225.3z"/>
					<path class="st0" d="M886.2,1085.8c0.9,0.5,1.9,1,2.8,1.5l4.8-9C891.2,1080.7,888.7,1083.2,886.2,1085.8z"/>
					<path class="st0" d="M726,1083c7.8,0.6,8.5-1.1,9.1-2.6c0.6-1.5,1-3,7.9-2c3.3-2.7-11.2-1.6-7.8-3.9
						C726.3,1077.7,721.2,1076.6,726,1083z"/>
					<path class="st0" d="M735.2,1074.4c1.4-0.5,2.9-1.1,4.5-1.9C737.1,1073.3,735.9,1073.9,735.2,1074.4z"/>
					<path class="st0" d="M968.4,40.4c3.2-0.4,6.8-0.9,10.7-1.7c-1.4-0.1-2.8-0.1-4.1-0.3c-1.3-0.1-2.6-0.3-3.8-0.4
						C970.2,38.8,969.3,39.6,968.4,40.4z"/>
					<path class="st0" d="M985.5,25c1,0.7,1.9,1.4,2.9,2.1c1,0.7,2.1,1.3,3.1,1.9c1.5-3.2,2.8-6.6,3.8-9.9c-0.6,0.6-1.3,1.3-2.2,2
						c-0.8,0.7-1.7,1.4-2.7,2C988.7,24.3,986.8,25.1,985.5,25z"/>
					<path class="st0" d="M636.3,689.1l0.4,1.7c1.2,0.1,2.2-0.1,3.5-0.8c1.3-0.7,2.8-1.8,4.8-3.1
						C642.1,687.5,639.2,688.3,636.3,689.1z"/>
					<polygon class="st0" points="751.7,617.3 749.7,618.3 756.4,621.1 					"/>
					<path class="st0" d="M838,555.7c-3,2.1-5.8,5.9-9.2,8c3.2-2.9,6.8-3.6,8.9-4.3C840,558.8,840.7,558.2,838,555.7z"/>
				</g>
			</g>
		</g>
	</g>
</g>
</svg>
